%TF.GenerationSoftware,KiCad,Pcbnew,(5.1.6)-1*%
%TF.CreationDate,2020-08-22T17:33:05+07:00*%
%TF.ProjectId,PCB design,50434220-6465-4736-9967-6e2e6b696361,rev?*%
%TF.SameCoordinates,Original*%
%TF.FileFunction,Copper,L2,Bot*%
%TF.FilePolarity,Positive*%
%FSLAX46Y46*%
G04 Gerber Fmt 4.6, Leading zero omitted, Abs format (unit mm)*
G04 Created by KiCad (PCBNEW (5.1.6)-1) date 2020-08-22 17:33:05*
%MOMM*%
%LPD*%
G01*
G04 APERTURE LIST*
%TA.AperFunction,ComponentPad*%
%ADD10C,1.500000*%
%TD*%
%TA.AperFunction,ComponentPad*%
%ADD11C,1.400000*%
%TD*%
%TA.AperFunction,ComponentPad*%
%ADD12R,1.400000X1.400000*%
%TD*%
%TA.AperFunction,ComponentPad*%
%ADD13O,1.350000X1.350000*%
%TD*%
%TA.AperFunction,ComponentPad*%
%ADD14R,1.350000X1.350000*%
%TD*%
%TA.AperFunction,ComponentPad*%
%ADD15O,2.000000X1.905000*%
%TD*%
%TA.AperFunction,ComponentPad*%
%ADD16R,2.000000X1.905000*%
%TD*%
%TA.AperFunction,ComponentPad*%
%ADD17R,1.500000X1.050000*%
%TD*%
%TA.AperFunction,ComponentPad*%
%ADD18O,1.500000X1.050000*%
%TD*%
%TA.AperFunction,ComponentPad*%
%ADD19O,1.600000X1.600000*%
%TD*%
%TA.AperFunction,ComponentPad*%
%ADD20R,1.600000X1.600000*%
%TD*%
%TA.AperFunction,ViaPad*%
%ADD21C,0.800000*%
%TD*%
%TA.AperFunction,Conductor*%
%ADD22C,0.760000*%
%TD*%
%TA.AperFunction,Conductor*%
%ADD23C,0.500000*%
%TD*%
G04 APERTURE END LIST*
D10*
%TO.P,Y1,2*%
%TO.N,Net-(C1-Pad1)*%
X103505000Y-139075000D03*
%TO.P,Y1,1*%
%TO.N,Net-(C2-Pad1)*%
X103505000Y-142875000D03*
%TD*%
D11*
%TO.P,SW8,6*%
%TO.N,Net-(D2-Pad2)*%
X90250000Y-128145000D03*
%TO.P,SW8,5*%
%TO.N,Net-(Q1-Pad3)*%
X92750000Y-128145000D03*
%TO.P,SW8,4*%
%TO.N,/RX_ATMEGA*%
X95250000Y-128145000D03*
%TO.P,SW8,3*%
%TO.N,Net-(D1-Pad2)*%
X90250000Y-131445000D03*
%TO.P,SW8,2*%
%TO.N,Net-(Q2-Pad3)*%
X92750000Y-131445000D03*
D12*
%TO.P,SW8,1*%
%TO.N,/TX_ATMEGA*%
X95250000Y-131445000D03*
%TD*%
D13*
%TO.P,J6,2*%
%TO.N,/RX_ESP*%
X61690000Y-116840000D03*
D14*
%TO.P,J6,1*%
%TO.N,/TX_ESP*%
X59690000Y-116840000D03*
%TD*%
D15*
%TO.P,Q3,3*%
%TO.N,GND*%
X83820000Y-152400000D03*
%TO.P,Q3,2*%
%TO.N,Net-(J5-Pad2)*%
X83820000Y-149860000D03*
D16*
%TO.P,Q3,1*%
%TO.N,Net-(Q3-Pad1)*%
X83820000Y-147320000D03*
%TD*%
D13*
%TO.P,J5,2*%
%TO.N,Net-(J5-Pad2)*%
X91980000Y-149860000D03*
D14*
%TO.P,J5,1*%
%TO.N,+24V*%
X93980000Y-149860000D03*
%TD*%
D13*
%TO.P,J3,6*%
%TO.N,GND*%
X132175000Y-157925000D03*
%TO.P,J3,5*%
%TO.N,/RESET*%
X130175000Y-157925000D03*
%TO.P,J3,4*%
%TO.N,/MOSI*%
X132175000Y-159925000D03*
%TO.P,J3,3*%
%TO.N,/SCK*%
X130175000Y-159925000D03*
%TO.P,J3,2*%
%TO.N,+5V*%
X132175000Y-161925000D03*
D14*
%TO.P,J3,1*%
%TO.N,/MISO*%
X130175000Y-161925000D03*
%TD*%
D13*
%TO.P,J2,2*%
%TO.N,GND*%
X102140000Y-161925000D03*
D14*
%TO.P,J2,1*%
%TO.N,+5V*%
X104140000Y-161925000D03*
%TD*%
D13*
%TO.P,J1,2*%
%TO.N,GND*%
X91980000Y-161925000D03*
D14*
%TO.P,J1,1*%
%TO.N,+24V*%
X93980000Y-161925000D03*
%TD*%
D17*
%TO.P,U3,1*%
%TO.N,+5V*%
X83820000Y-158750000D03*
D18*
%TO.P,U3,3*%
%TO.N,+24V*%
X83820000Y-161290000D03*
%TO.P,U3,2*%
%TO.N,GND*%
X83820000Y-160020000D03*
%TD*%
D19*
%TO.P,U4,28*%
%TO.N,/BUTTON4*%
X117475000Y-126365000D03*
%TO.P,U4,14*%
%TO.N,Net-(U4-Pad14)*%
X109855000Y-159385000D03*
%TO.P,U4,27*%
%TO.N,/BUTTON3*%
X117475000Y-128905000D03*
%TO.P,U4,13*%
%TO.N,Net-(U4-Pad13)*%
X109855000Y-156845000D03*
%TO.P,U4,26*%
%TO.N,/BUTTON2*%
X117475000Y-131445000D03*
%TO.P,U4,12*%
%TO.N,/PWM*%
X109855000Y-154305000D03*
%TO.P,U4,25*%
%TO.N,/BUTTON1*%
X117475000Y-133985000D03*
%TO.P,U4,11*%
%TO.N,Net-(U4-Pad11)*%
X109855000Y-151765000D03*
%TO.P,U4,24*%
%TO.N,Net-(U4-Pad24)*%
X117475000Y-136525000D03*
%TO.P,U4,10*%
%TO.N,Net-(C2-Pad1)*%
X109855000Y-149225000D03*
%TO.P,U4,23*%
%TO.N,Net-(U4-Pad23)*%
X117475000Y-139065000D03*
%TO.P,U4,9*%
%TO.N,Net-(C1-Pad1)*%
X109855000Y-146685000D03*
%TO.P,U4,22*%
%TO.N,GND*%
X117475000Y-141605000D03*
%TO.P,U4,8*%
X109855000Y-144145000D03*
%TO.P,U4,21*%
%TO.N,Net-(U4-Pad21)*%
X117475000Y-144145000D03*
%TO.P,U4,7*%
%TO.N,+5V*%
X109855000Y-141605000D03*
%TO.P,U4,20*%
X117475000Y-146685000D03*
%TO.P,U4,6*%
%TO.N,Net-(U4-Pad6)*%
X109855000Y-139065000D03*
%TO.P,U4,19*%
%TO.N,/SCK*%
X117475000Y-149225000D03*
%TO.P,U4,5*%
%TO.N,Net-(U4-Pad5)*%
X109855000Y-136525000D03*
%TO.P,U4,18*%
%TO.N,/MISO*%
X117475000Y-151765000D03*
%TO.P,U4,4*%
%TO.N,Net-(U4-Pad4)*%
X109855000Y-133985000D03*
%TO.P,U4,17*%
%TO.N,/MOSI*%
X117475000Y-154305000D03*
%TO.P,U4,3*%
%TO.N,/TX_ATMEGA*%
X109855000Y-131445000D03*
%TO.P,U4,16*%
%TO.N,Net-(U4-Pad16)*%
X117475000Y-156845000D03*
%TO.P,U4,2*%
%TO.N,/RX_ATMEGA*%
X109855000Y-128905000D03*
%TO.P,U4,15*%
%TO.N,Net-(U4-Pad15)*%
X117475000Y-159385000D03*
D20*
%TO.P,U4,1*%
%TO.N,/RESET*%
X109855000Y-126365000D03*
%TD*%
D21*
%TO.N,GND*%
X58420000Y-149860000D03*
X62230000Y-149860000D03*
X83185000Y-125730000D03*
X74295000Y-133985000D03*
X86360000Y-119380000D03*
%TO.N,+5V*%
X135255000Y-161925000D03*
X121920000Y-149860000D03*
X121285000Y-140970000D03*
X121285000Y-130810000D03*
X121920000Y-121920000D03*
X103505000Y-125095000D03*
X86995000Y-125730000D03*
%TO.N,+3V3*%
X99060000Y-125730000D03*
X99060000Y-132080000D03*
%TO.N,Net-(R4-Pad1)*%
X59055000Y-141605000D03*
X67310000Y-139065000D03*
%TO.N,/SD_CS*%
X58420000Y-153670000D03*
X64770000Y-121285000D03*
%TO.N,Net-(SW3-Pad2)*%
X57785000Y-118745000D03*
X67310000Y-119380000D03*
%TD*%
D22*
%TO.N,GND*%
X109855000Y-144145000D02*
X112395000Y-144145000D01*
X114935000Y-141605000D02*
X117475000Y-141605000D01*
X112395000Y-144145000D02*
X114935000Y-141605000D01*
X132175000Y-157925000D02*
X132175000Y-156940000D01*
X132175000Y-156940000D02*
X131445000Y-156210000D01*
X131445000Y-156210000D02*
X127635000Y-156210000D01*
X127635000Y-156210000D02*
X125730000Y-158115000D01*
X125730000Y-158115000D02*
X125730000Y-159385000D01*
X125730000Y-159385000D02*
X121285000Y-163830000D01*
X121285000Y-163830000D02*
X102870000Y-163830000D01*
X102140000Y-163100000D02*
X102140000Y-161925000D01*
X102870000Y-163830000D02*
X102140000Y-163100000D01*
D23*
X58420000Y-149860000D02*
X61595000Y-149860000D01*
X62230000Y-149860000D02*
X61595000Y-149860000D01*
D22*
X83820000Y-152400000D02*
X82550000Y-152400000D01*
X78740000Y-148590000D02*
X70485000Y-148590000D01*
X82550000Y-152400000D02*
X78740000Y-148590000D01*
X70485000Y-148590000D02*
X62865000Y-156210000D01*
X62865000Y-156210000D02*
X57785000Y-156210000D01*
X57785000Y-156210000D02*
X55880000Y-154305000D01*
X55880000Y-152400000D02*
X58420000Y-149860000D01*
X55880000Y-154305000D02*
X55880000Y-152400000D01*
X102140000Y-161925000D02*
X100330000Y-160115000D01*
X97885000Y-160115000D02*
X97790000Y-160020000D01*
X100330000Y-160115000D02*
X97885000Y-160115000D01*
X97790000Y-160020000D02*
X92710000Y-160020000D01*
X91980000Y-160750000D02*
X91980000Y-161925000D01*
X92710000Y-160020000D02*
X91980000Y-160750000D01*
X83185000Y-125730000D02*
X80010000Y-128905000D01*
X74295000Y-133985000D02*
X80010000Y-133985000D01*
X80010000Y-128905000D02*
X80010000Y-133985000D01*
X80010000Y-133985000D02*
X80010000Y-149860000D01*
X83185000Y-122555000D02*
X83185000Y-125730000D01*
X86360000Y-119380000D02*
X83185000Y-122555000D01*
%TO.N,+5V*%
X135255000Y-161925000D02*
X135255000Y-156210000D01*
X135255000Y-156210000D02*
X133985000Y-154940000D01*
X133985000Y-154940000D02*
X123825000Y-154940000D01*
X123825000Y-154940000D02*
X120015000Y-151130000D01*
X118745000Y-146685000D02*
X117475000Y-146685000D01*
X120015000Y-147955000D02*
X118745000Y-146685000D01*
X104140000Y-161925000D02*
X120650000Y-161925000D01*
X123825000Y-158750000D02*
X123825000Y-154940000D01*
X120650000Y-161925000D02*
X123825000Y-158750000D01*
X83820000Y-158750000D02*
X102870000Y-158750000D01*
X104140000Y-160020000D02*
X104140000Y-161925000D01*
X102870000Y-158750000D02*
X104140000Y-160020000D01*
X109855000Y-141605000D02*
X107950000Y-141605000D01*
X104140000Y-145415000D02*
X104140000Y-161925000D01*
X121920000Y-149860000D02*
X120015000Y-149860000D01*
X120015000Y-151130000D02*
X120015000Y-149860000D01*
X120015000Y-149860000D02*
X120015000Y-147955000D01*
X120015000Y-142240000D02*
X120015000Y-147955000D01*
X121285000Y-140970000D02*
X120015000Y-142240000D01*
X120015000Y-132080000D02*
X120015000Y-142240000D01*
X121285000Y-130810000D02*
X120015000Y-132080000D01*
X120015000Y-123825000D02*
X120015000Y-132080000D01*
X121920000Y-121920000D02*
X120015000Y-123825000D01*
X106680000Y-128270000D02*
X106680000Y-142875000D01*
X103505000Y-125095000D02*
X106680000Y-128270000D01*
X107950000Y-141605000D02*
X106680000Y-142875000D01*
X106680000Y-142875000D02*
X104140000Y-145415000D01*
X86995000Y-125730000D02*
X89535000Y-123190000D01*
X101600000Y-123190000D02*
X103505000Y-125095000D01*
X89535000Y-123190000D02*
X101600000Y-123190000D01*
%TO.N,/RESET*%
X112395000Y-123825000D02*
X109855000Y-126365000D01*
X116205000Y-120015000D02*
X112395000Y-123825000D01*
X137160000Y-162560000D02*
X137160000Y-155575000D01*
X127635000Y-158750000D02*
X127635000Y-163195000D01*
X130175000Y-157925000D02*
X128460000Y-157925000D01*
X128460000Y-157925000D02*
X127635000Y-158750000D01*
X128270000Y-163830000D02*
X135890000Y-163830000D01*
X135890000Y-163830000D02*
X137160000Y-162560000D01*
X127635000Y-163195000D02*
X128270000Y-163830000D01*
X137160000Y-155575000D02*
X134620000Y-153035000D01*
X134620000Y-153035000D02*
X134620000Y-128905000D01*
X134620000Y-128905000D02*
X125730000Y-120015000D01*
X125730000Y-120015000D02*
X116205000Y-120015000D01*
%TO.N,+3V3*%
X99060000Y-125730000D02*
X99060000Y-132080000D01*
D23*
%TO.N,Net-(R4-Pad1)*%
X59055000Y-141605000D02*
X59690000Y-140970000D01*
X59690000Y-140970000D02*
X65405000Y-140970000D01*
X65405000Y-140970000D02*
X67310000Y-139065000D01*
%TO.N,/SD_CS*%
X58420000Y-153670000D02*
X62230000Y-153670000D01*
X62230000Y-153670000D02*
X69215000Y-146685000D01*
X69215000Y-146685000D02*
X69215000Y-125730000D01*
X64770000Y-121285000D02*
X69215000Y-125730000D01*
%TO.N,Net-(SW3-Pad2)*%
X66040000Y-118745000D02*
X57785000Y-118745000D01*
X66675000Y-118745000D02*
X66040000Y-118745000D01*
X67310000Y-119380000D02*
X66675000Y-118745000D01*
%TD*%
M02*
