%TF.GenerationSoftware,KiCad,Pcbnew,(5.1.6)-1*%
%TF.CreationDate,2020-08-22T17:33:05+07:00*%
%TF.ProjectId,PCB design,50434220-6465-4736-9967-6e2e6b696361,rev?*%
%TF.SameCoordinates,Original*%
%TF.FileFunction,Legend,Top*%
%TF.FilePolarity,Positive*%
%FSLAX46Y46*%
G04 Gerber Fmt 4.6, Leading zero omitted, Abs format (unit mm)*
G04 Created by KiCad (PCBNEW (5.1.6)-1) date 2020-08-22 17:33:05*
%MOMM*%
%LPD*%
G01*
G04 APERTURE LIST*
%ADD10C,0.120000*%
%ADD11C,0.100000*%
%ADD12C,0.150000*%
G04 APERTURE END LIST*
D10*
%TO.C,SW5*%
X133405000Y-136470000D02*
X133405000Y-136500000D01*
X133405000Y-142930000D02*
X133405000Y-142900000D01*
X126945000Y-142930000D02*
X126945000Y-142900000D01*
X126945000Y-136500000D02*
X126945000Y-136470000D01*
X133405000Y-138400000D02*
X133405000Y-141000000D01*
X126945000Y-136470000D02*
X133405000Y-136470000D01*
X126945000Y-138400000D02*
X126945000Y-141000000D01*
X126945000Y-142930000D02*
X133405000Y-142930000D01*
%TO.C,SW7*%
X133405000Y-116150000D02*
X133405000Y-116180000D01*
X133405000Y-122610000D02*
X133405000Y-122580000D01*
X126945000Y-122610000D02*
X126945000Y-122580000D01*
X126945000Y-116180000D02*
X126945000Y-116150000D01*
X133405000Y-118080000D02*
X133405000Y-120680000D01*
X126945000Y-116150000D02*
X133405000Y-116150000D01*
X126945000Y-118080000D02*
X126945000Y-120680000D01*
X126945000Y-122610000D02*
X133405000Y-122610000D01*
%TO.C,SW6*%
X133405000Y-126310000D02*
X133405000Y-126340000D01*
X133405000Y-132770000D02*
X133405000Y-132740000D01*
X126945000Y-132770000D02*
X126945000Y-132740000D01*
X126945000Y-126340000D02*
X126945000Y-126310000D01*
X133405000Y-128240000D02*
X133405000Y-130840000D01*
X126945000Y-126310000D02*
X133405000Y-126310000D01*
X126945000Y-128240000D02*
X126945000Y-130840000D01*
X126945000Y-132770000D02*
X133405000Y-132770000D01*
%TO.C,SW4*%
X133405000Y-146630000D02*
X133405000Y-146660000D01*
X133405000Y-153090000D02*
X133405000Y-153060000D01*
X126945000Y-153090000D02*
X126945000Y-153060000D01*
X126945000Y-146660000D02*
X126945000Y-146630000D01*
X133405000Y-148560000D02*
X133405000Y-151160000D01*
X126945000Y-146630000D02*
X133405000Y-146630000D01*
X126945000Y-148560000D02*
X126945000Y-151160000D01*
X126945000Y-153090000D02*
X133405000Y-153090000D01*
%TO.C,SW3*%
X75620000Y-116785000D02*
X75620000Y-116815000D01*
X75620000Y-123245000D02*
X75620000Y-123215000D01*
X69160000Y-123245000D02*
X69160000Y-123215000D01*
X69160000Y-116815000D02*
X69160000Y-116785000D01*
X75620000Y-118715000D02*
X75620000Y-121315000D01*
X69160000Y-116785000D02*
X75620000Y-116785000D01*
X69160000Y-118715000D02*
X69160000Y-121315000D01*
X69160000Y-123245000D02*
X75620000Y-123245000D01*
%TO.C,SW2*%
X75620000Y-126310000D02*
X75620000Y-126340000D01*
X75620000Y-132770000D02*
X75620000Y-132740000D01*
X69160000Y-132770000D02*
X69160000Y-132740000D01*
X69160000Y-126340000D02*
X69160000Y-126310000D01*
X75620000Y-128240000D02*
X75620000Y-130840000D01*
X69160000Y-126310000D02*
X75620000Y-126310000D01*
X69160000Y-128240000D02*
X69160000Y-130840000D01*
X69160000Y-132770000D02*
X75620000Y-132770000D01*
%TO.C,SW1*%
X116260000Y-116150000D02*
X116260000Y-116180000D01*
X116260000Y-122610000D02*
X116260000Y-122580000D01*
X109800000Y-122610000D02*
X109800000Y-122580000D01*
X109800000Y-116180000D02*
X109800000Y-116150000D01*
X116260000Y-118080000D02*
X116260000Y-120680000D01*
X109800000Y-116150000D02*
X116260000Y-116150000D01*
X109800000Y-118080000D02*
X109800000Y-120680000D01*
X109800000Y-122610000D02*
X116260000Y-122610000D01*
%TO.C,D2*%
X85455000Y-127310000D02*
X82770000Y-127310000D01*
X82770000Y-127310000D02*
X82770000Y-129230000D01*
X82770000Y-129230000D02*
X85455000Y-129230000D01*
%TO.C,D1*%
X85455000Y-130485000D02*
X82770000Y-130485000D01*
X82770000Y-130485000D02*
X82770000Y-132405000D01*
X82770000Y-132405000D02*
X85455000Y-132405000D01*
%TO.C,C8*%
X78460000Y-158395000D02*
X77260000Y-158395000D01*
X73940000Y-158395000D02*
X75140000Y-158395000D01*
X73940000Y-161850563D02*
X73940000Y-158395000D01*
X78460000Y-161850563D02*
X78460000Y-158395000D01*
X77395563Y-162915000D02*
X77260000Y-162915000D01*
X75004437Y-162915000D02*
X75140000Y-162915000D01*
X75004437Y-162915000D02*
X73940000Y-161850563D01*
X77395563Y-162915000D02*
X78460000Y-161850563D01*
X74640000Y-163655000D02*
X74640000Y-163155000D01*
X74390000Y-163405000D02*
X74890000Y-163405000D01*
%TO.C,C7*%
X100610000Y-153950000D02*
X100610000Y-155150000D01*
X100610000Y-158470000D02*
X100610000Y-157270000D01*
X104065563Y-158470000D02*
X100610000Y-158470000D01*
X104065563Y-153950000D02*
X100610000Y-153950000D01*
X105130000Y-155014437D02*
X105130000Y-155150000D01*
X105130000Y-157405563D02*
X105130000Y-157270000D01*
X105130000Y-157405563D02*
X104065563Y-158470000D01*
X105130000Y-155014437D02*
X104065563Y-153950000D01*
X105870000Y-157770000D02*
X105370000Y-157770000D01*
X105620000Y-158020000D02*
X105620000Y-157520000D01*
%TO.C,C5*%
X90450000Y-153950000D02*
X90450000Y-155150000D01*
X90450000Y-158470000D02*
X90450000Y-157270000D01*
X93905563Y-158470000D02*
X90450000Y-158470000D01*
X93905563Y-153950000D02*
X90450000Y-153950000D01*
X94970000Y-155014437D02*
X94970000Y-155150000D01*
X94970000Y-157405563D02*
X94970000Y-157270000D01*
X94970000Y-157405563D02*
X93905563Y-158470000D01*
X94970000Y-155014437D02*
X93905563Y-153950000D01*
X95710000Y-157770000D02*
X95210000Y-157770000D01*
X95460000Y-158020000D02*
X95460000Y-157520000D01*
%TO.C,C3*%
X59970000Y-159740000D02*
X61170000Y-159740000D01*
X64490000Y-159740000D02*
X63290000Y-159740000D01*
X64490000Y-156284437D02*
X64490000Y-159740000D01*
X59970000Y-156284437D02*
X59970000Y-159740000D01*
X61034437Y-155220000D02*
X61170000Y-155220000D01*
X63425563Y-155220000D02*
X63290000Y-155220000D01*
X63425563Y-155220000D02*
X64490000Y-156284437D01*
X61034437Y-155220000D02*
X59970000Y-156284437D01*
X63790000Y-154480000D02*
X63790000Y-154980000D01*
X64040000Y-154730000D02*
X63540000Y-154730000D01*
%TO.C,Y1*%
X105355000Y-138625000D02*
G75*
G03*
X101655000Y-138625000I-1850000J0D01*
G01*
X105355000Y-143325000D02*
G75*
G02*
X101655000Y-143325000I-1850000J0D01*
G01*
X101655000Y-143325000D02*
X101655000Y-138625000D01*
X105355000Y-143325000D02*
X105355000Y-138625000D01*
%TO.C,R14*%
X123115000Y-119638578D02*
X123115000Y-119121422D01*
X124535000Y-119638578D02*
X124535000Y-119121422D01*
%TO.C,R13*%
X123115000Y-129798578D02*
X123115000Y-129281422D01*
X124535000Y-129798578D02*
X124535000Y-129281422D01*
%TO.C,R12*%
X123115000Y-139958578D02*
X123115000Y-139441422D01*
X124535000Y-139958578D02*
X124535000Y-139441422D01*
%TO.C,R11*%
X123115000Y-150118578D02*
X123115000Y-149601422D01*
X124535000Y-150118578D02*
X124535000Y-149601422D01*
%TO.C,R10*%
X92968578Y-146760000D02*
X92451422Y-146760000D01*
X92968578Y-145340000D02*
X92451422Y-145340000D01*
%TO.C,R9*%
X87371422Y-133910000D02*
X87888578Y-133910000D01*
X87371422Y-135330000D02*
X87888578Y-135330000D01*
%TO.C,R8*%
X98351078Y-136600000D02*
X97833922Y-136600000D01*
X98351078Y-135180000D02*
X97833922Y-135180000D01*
%TO.C,R7*%
X87371422Y-122480000D02*
X87888578Y-122480000D01*
X87371422Y-123900000D02*
X87888578Y-123900000D01*
%TO.C,R6*%
X98351078Y-124535000D02*
X97833922Y-124535000D01*
X98351078Y-123115000D02*
X97833922Y-123115000D01*
%TO.C,R5*%
X68321422Y-141530000D02*
X68838578Y-141530000D01*
X68321422Y-142950000D02*
X68838578Y-142950000D01*
%TO.C,R4*%
X68321422Y-136450000D02*
X68838578Y-136450000D01*
X68321422Y-137870000D02*
X68838578Y-137870000D01*
%TO.C,R3*%
X72950000Y-137418578D02*
X72950000Y-136901422D01*
X74370000Y-137418578D02*
X74370000Y-136901422D01*
%TO.C,R2*%
X51995000Y-141863578D02*
X51995000Y-141346422D01*
X53415000Y-141863578D02*
X53415000Y-141346422D01*
%TO.C,R1*%
X103246422Y-121210000D02*
X103763578Y-121210000D01*
X103246422Y-122630000D02*
X103763578Y-122630000D01*
%TO.C,C6*%
X77560000Y-153702936D02*
X77560000Y-154907064D01*
X74840000Y-153702936D02*
X74840000Y-154907064D01*
%TO.C,C4*%
X70575000Y-157512936D02*
X70575000Y-158717064D01*
X67855000Y-157512936D02*
X67855000Y-158717064D01*
%TO.C,C2*%
X105882064Y-149950000D02*
X104677936Y-149950000D01*
X105882064Y-147230000D02*
X104677936Y-147230000D01*
%TO.C,C1*%
X104042936Y-131990000D02*
X105247064Y-131990000D01*
X104042936Y-134710000D02*
X105247064Y-134710000D01*
%TO.C,SW8*%
X97650000Y-132195000D02*
X97650000Y-130995000D01*
X96450000Y-132195000D02*
X97650000Y-132195000D01*
X88150000Y-127695000D02*
X89350000Y-127695000D01*
X88150000Y-131895000D02*
X88150000Y-127695000D01*
X89350000Y-131895000D02*
X88150000Y-131895000D01*
X97350000Y-127695000D02*
X96150000Y-127695000D01*
X97350000Y-131895000D02*
X97350000Y-127695000D01*
X96150000Y-131895000D02*
X97350000Y-131895000D01*
%TO.C,J6*%
X62750000Y-117900000D02*
X62750000Y-115780000D01*
X60690000Y-117900000D02*
X62750000Y-117900000D01*
X60690000Y-115780000D02*
X62750000Y-115780000D01*
X60690000Y-117900000D02*
X60690000Y-115780000D01*
X59690000Y-117900000D02*
X58630000Y-117900000D01*
X58630000Y-117900000D02*
X58630000Y-116840000D01*
%TO.C,Q3*%
X87090000Y-144740000D02*
X87090000Y-154980000D01*
X82449000Y-144740000D02*
X82449000Y-154980000D01*
X87090000Y-144740000D02*
X82449000Y-144740000D01*
X87090000Y-154980000D02*
X82449000Y-154980000D01*
X85580000Y-144740000D02*
X85580000Y-154980000D01*
X87090000Y-148010000D02*
X85580000Y-148010000D01*
X87090000Y-151711000D02*
X85580000Y-151711000D01*
%TO.C,Q2*%
X94290000Y-135130000D02*
X93360000Y-135130000D01*
X91130000Y-135130000D02*
X92060000Y-135130000D01*
X91130000Y-135130000D02*
X91130000Y-137290000D01*
X94290000Y-135130000D02*
X94290000Y-136590000D01*
%TO.C,Q1*%
X91130000Y-124585000D02*
X92060000Y-124585000D01*
X94290000Y-124585000D02*
X93360000Y-124585000D01*
X94290000Y-124585000D02*
X94290000Y-122425000D01*
X91130000Y-124585000D02*
X91130000Y-123125000D01*
%TO.C,J5*%
X90920000Y-148800000D02*
X90920000Y-150920000D01*
X92980000Y-148800000D02*
X90920000Y-148800000D01*
X92980000Y-150920000D02*
X90920000Y-150920000D01*
X92980000Y-148800000D02*
X92980000Y-150920000D01*
X93980000Y-148800000D02*
X95040000Y-148800000D01*
X95040000Y-148800000D02*
X95040000Y-149860000D01*
%TO.C,J4*%
X56780000Y-157475000D02*
X56780000Y-159395000D01*
X56780000Y-159395000D02*
X42770000Y-159395000D01*
X56780000Y-145875000D02*
X56780000Y-145425000D01*
X56780000Y-145425000D02*
X53170000Y-145425000D01*
X40510000Y-157715000D02*
X40510000Y-155405000D01*
X40510000Y-146455000D02*
X40510000Y-148315000D01*
X40510000Y-146455000D02*
X40710000Y-146255000D01*
X51470000Y-145425000D02*
X46770000Y-145425000D01*
X45470000Y-145425000D02*
X43670000Y-145425000D01*
X40860000Y-148525000D02*
X40860000Y-154895000D01*
X40860000Y-148525000D02*
X40710000Y-148525000D01*
X40510000Y-148315000D02*
X40710000Y-148525000D01*
X40510000Y-157715000D02*
X40710000Y-157915000D01*
X40710000Y-157915000D02*
X40710000Y-158175000D01*
X40510000Y-155405000D02*
X40860000Y-154895000D01*
%TO.C,J3*%
X130175000Y-162985000D02*
X129115000Y-162985000D01*
X129115000Y-162985000D02*
X129115000Y-161925000D01*
X131175000Y-162985000D02*
X131175000Y-160925000D01*
X131175000Y-160925000D02*
X129115000Y-160925000D01*
X129115000Y-160925000D02*
X129115000Y-156865000D01*
X133235000Y-156865000D02*
X129115000Y-156865000D01*
X133235000Y-162985000D02*
X133235000Y-156865000D01*
X133235000Y-162985000D02*
X131175000Y-162985000D01*
%TO.C,J2*%
X105200000Y-161925000D02*
X105200000Y-162985000D01*
X105200000Y-162985000D02*
X104140000Y-162985000D01*
X103140000Y-162985000D02*
X101080000Y-162985000D01*
X101080000Y-160865000D02*
X101080000Y-162985000D01*
X103140000Y-160865000D02*
X101080000Y-160865000D01*
X103140000Y-160865000D02*
X103140000Y-162985000D01*
%TO.C,J1*%
X95040000Y-161925000D02*
X95040000Y-162985000D01*
X95040000Y-162985000D02*
X93980000Y-162985000D01*
X92980000Y-162985000D02*
X90920000Y-162985000D01*
X90920000Y-160865000D02*
X90920000Y-162985000D01*
X92980000Y-160865000D02*
X90920000Y-160865000D01*
X92980000Y-160865000D02*
X92980000Y-162985000D01*
%TO.C,U3*%
X81970000Y-158220000D02*
X81970000Y-161820000D01*
X81981522Y-161858478D02*
G75*
G03*
X86420000Y-160020000I1838478J1838478D01*
G01*
X81981522Y-158181522D02*
G75*
G02*
X86420000Y-160020000I1838478J-1838478D01*
G01*
%TO.C,U1*%
X70085000Y-147315000D02*
X68825000Y-147315000D01*
X63265000Y-147315000D02*
X64525000Y-147315000D01*
X70085000Y-151075000D02*
X70085000Y-147315000D01*
X63265000Y-153325000D02*
X63265000Y-147315000D01*
%TO.C,U4*%
X116315000Y-125035000D02*
X114665000Y-125035000D01*
X116315000Y-160715000D02*
X116315000Y-125035000D01*
X111015000Y-160715000D02*
X116315000Y-160715000D01*
X111015000Y-125035000D02*
X111015000Y-160715000D01*
X112665000Y-125035000D02*
X111015000Y-125035000D01*
X114665000Y-125035000D02*
G75*
G02*
X112665000Y-125035000I-1000000J0D01*
G01*
D11*
%TO.C,U2*%
X50250000Y-138660000D02*
X50250000Y-140540000D01*
X43930000Y-138660000D02*
X50250000Y-138660000D01*
X43930000Y-120420000D02*
X50450000Y-120420000D01*
X43930000Y-138660000D02*
X43930000Y-120420000D01*
X64170000Y-121540000D02*
X64170000Y-120420000D01*
X63850000Y-120420000D02*
X64150000Y-120420000D01*
X64170000Y-138660000D02*
X64170000Y-137640000D01*
X63950000Y-138660000D02*
X64170000Y-138660000D01*
%TO.C,SW5*%
D12*
X128841666Y-136054761D02*
X128984523Y-136102380D01*
X129222619Y-136102380D01*
X129317857Y-136054761D01*
X129365476Y-136007142D01*
X129413095Y-135911904D01*
X129413095Y-135816666D01*
X129365476Y-135721428D01*
X129317857Y-135673809D01*
X129222619Y-135626190D01*
X129032142Y-135578571D01*
X128936904Y-135530952D01*
X128889285Y-135483333D01*
X128841666Y-135388095D01*
X128841666Y-135292857D01*
X128889285Y-135197619D01*
X128936904Y-135150000D01*
X129032142Y-135102380D01*
X129270238Y-135102380D01*
X129413095Y-135150000D01*
X129746428Y-135102380D02*
X129984523Y-136102380D01*
X130175000Y-135388095D01*
X130365476Y-136102380D01*
X130603571Y-135102380D01*
X131460714Y-135102380D02*
X130984523Y-135102380D01*
X130936904Y-135578571D01*
X130984523Y-135530952D01*
X131079761Y-135483333D01*
X131317857Y-135483333D01*
X131413095Y-135530952D01*
X131460714Y-135578571D01*
X131508333Y-135673809D01*
X131508333Y-135911904D01*
X131460714Y-136007142D01*
X131413095Y-136054761D01*
X131317857Y-136102380D01*
X131079761Y-136102380D01*
X130984523Y-136054761D01*
X130936904Y-136007142D01*
%TO.C,SW7*%
X128841666Y-115734761D02*
X128984523Y-115782380D01*
X129222619Y-115782380D01*
X129317857Y-115734761D01*
X129365476Y-115687142D01*
X129413095Y-115591904D01*
X129413095Y-115496666D01*
X129365476Y-115401428D01*
X129317857Y-115353809D01*
X129222619Y-115306190D01*
X129032142Y-115258571D01*
X128936904Y-115210952D01*
X128889285Y-115163333D01*
X128841666Y-115068095D01*
X128841666Y-114972857D01*
X128889285Y-114877619D01*
X128936904Y-114830000D01*
X129032142Y-114782380D01*
X129270238Y-114782380D01*
X129413095Y-114830000D01*
X129746428Y-114782380D02*
X129984523Y-115782380D01*
X130175000Y-115068095D01*
X130365476Y-115782380D01*
X130603571Y-114782380D01*
X130889285Y-114782380D02*
X131555952Y-114782380D01*
X131127380Y-115782380D01*
%TO.C,SW6*%
X128841666Y-125894761D02*
X128984523Y-125942380D01*
X129222619Y-125942380D01*
X129317857Y-125894761D01*
X129365476Y-125847142D01*
X129413095Y-125751904D01*
X129413095Y-125656666D01*
X129365476Y-125561428D01*
X129317857Y-125513809D01*
X129222619Y-125466190D01*
X129032142Y-125418571D01*
X128936904Y-125370952D01*
X128889285Y-125323333D01*
X128841666Y-125228095D01*
X128841666Y-125132857D01*
X128889285Y-125037619D01*
X128936904Y-124990000D01*
X129032142Y-124942380D01*
X129270238Y-124942380D01*
X129413095Y-124990000D01*
X129746428Y-124942380D02*
X129984523Y-125942380D01*
X130175000Y-125228095D01*
X130365476Y-125942380D01*
X130603571Y-124942380D01*
X131413095Y-124942380D02*
X131222619Y-124942380D01*
X131127380Y-124990000D01*
X131079761Y-125037619D01*
X130984523Y-125180476D01*
X130936904Y-125370952D01*
X130936904Y-125751904D01*
X130984523Y-125847142D01*
X131032142Y-125894761D01*
X131127380Y-125942380D01*
X131317857Y-125942380D01*
X131413095Y-125894761D01*
X131460714Y-125847142D01*
X131508333Y-125751904D01*
X131508333Y-125513809D01*
X131460714Y-125418571D01*
X131413095Y-125370952D01*
X131317857Y-125323333D01*
X131127380Y-125323333D01*
X131032142Y-125370952D01*
X130984523Y-125418571D01*
X130936904Y-125513809D01*
%TO.C,SW4*%
X128841666Y-146214761D02*
X128984523Y-146262380D01*
X129222619Y-146262380D01*
X129317857Y-146214761D01*
X129365476Y-146167142D01*
X129413095Y-146071904D01*
X129413095Y-145976666D01*
X129365476Y-145881428D01*
X129317857Y-145833809D01*
X129222619Y-145786190D01*
X129032142Y-145738571D01*
X128936904Y-145690952D01*
X128889285Y-145643333D01*
X128841666Y-145548095D01*
X128841666Y-145452857D01*
X128889285Y-145357619D01*
X128936904Y-145310000D01*
X129032142Y-145262380D01*
X129270238Y-145262380D01*
X129413095Y-145310000D01*
X129746428Y-145262380D02*
X129984523Y-146262380D01*
X130175000Y-145548095D01*
X130365476Y-146262380D01*
X130603571Y-145262380D01*
X131413095Y-145595714D02*
X131413095Y-146262380D01*
X131175000Y-145214761D02*
X130936904Y-145929047D01*
X131555952Y-145929047D01*
%TO.C,SW3*%
X71056666Y-120419761D02*
X71199523Y-120467380D01*
X71437619Y-120467380D01*
X71532857Y-120419761D01*
X71580476Y-120372142D01*
X71628095Y-120276904D01*
X71628095Y-120181666D01*
X71580476Y-120086428D01*
X71532857Y-120038809D01*
X71437619Y-119991190D01*
X71247142Y-119943571D01*
X71151904Y-119895952D01*
X71104285Y-119848333D01*
X71056666Y-119753095D01*
X71056666Y-119657857D01*
X71104285Y-119562619D01*
X71151904Y-119515000D01*
X71247142Y-119467380D01*
X71485238Y-119467380D01*
X71628095Y-119515000D01*
X71961428Y-119467380D02*
X72199523Y-120467380D01*
X72390000Y-119753095D01*
X72580476Y-120467380D01*
X72818571Y-119467380D01*
X73104285Y-119467380D02*
X73723333Y-119467380D01*
X73390000Y-119848333D01*
X73532857Y-119848333D01*
X73628095Y-119895952D01*
X73675714Y-119943571D01*
X73723333Y-120038809D01*
X73723333Y-120276904D01*
X73675714Y-120372142D01*
X73628095Y-120419761D01*
X73532857Y-120467380D01*
X73247142Y-120467380D01*
X73151904Y-120419761D01*
X73104285Y-120372142D01*
%TO.C,SW2*%
X71056666Y-125894761D02*
X71199523Y-125942380D01*
X71437619Y-125942380D01*
X71532857Y-125894761D01*
X71580476Y-125847142D01*
X71628095Y-125751904D01*
X71628095Y-125656666D01*
X71580476Y-125561428D01*
X71532857Y-125513809D01*
X71437619Y-125466190D01*
X71247142Y-125418571D01*
X71151904Y-125370952D01*
X71104285Y-125323333D01*
X71056666Y-125228095D01*
X71056666Y-125132857D01*
X71104285Y-125037619D01*
X71151904Y-124990000D01*
X71247142Y-124942380D01*
X71485238Y-124942380D01*
X71628095Y-124990000D01*
X71961428Y-124942380D02*
X72199523Y-125942380D01*
X72390000Y-125228095D01*
X72580476Y-125942380D01*
X72818571Y-124942380D01*
X73151904Y-125037619D02*
X73199523Y-124990000D01*
X73294761Y-124942380D01*
X73532857Y-124942380D01*
X73628095Y-124990000D01*
X73675714Y-125037619D01*
X73723333Y-125132857D01*
X73723333Y-125228095D01*
X73675714Y-125370952D01*
X73104285Y-125942380D01*
X73723333Y-125942380D01*
%TO.C,SW1*%
X111696666Y-115734761D02*
X111839523Y-115782380D01*
X112077619Y-115782380D01*
X112172857Y-115734761D01*
X112220476Y-115687142D01*
X112268095Y-115591904D01*
X112268095Y-115496666D01*
X112220476Y-115401428D01*
X112172857Y-115353809D01*
X112077619Y-115306190D01*
X111887142Y-115258571D01*
X111791904Y-115210952D01*
X111744285Y-115163333D01*
X111696666Y-115068095D01*
X111696666Y-114972857D01*
X111744285Y-114877619D01*
X111791904Y-114830000D01*
X111887142Y-114782380D01*
X112125238Y-114782380D01*
X112268095Y-114830000D01*
X112601428Y-114782380D02*
X112839523Y-115782380D01*
X113030000Y-115068095D01*
X113220476Y-115782380D01*
X113458571Y-114782380D01*
X114363333Y-115782380D02*
X113791904Y-115782380D01*
X114077619Y-115782380D02*
X114077619Y-114782380D01*
X113982380Y-114925238D01*
X113887142Y-115020476D01*
X113791904Y-115068095D01*
%TO.C,D2*%
X83716904Y-128722380D02*
X83716904Y-127722380D01*
X83955000Y-127722380D01*
X84097857Y-127770000D01*
X84193095Y-127865238D01*
X84240714Y-127960476D01*
X84288333Y-128150952D01*
X84288333Y-128293809D01*
X84240714Y-128484285D01*
X84193095Y-128579523D01*
X84097857Y-128674761D01*
X83955000Y-128722380D01*
X83716904Y-128722380D01*
X84669285Y-127817619D02*
X84716904Y-127770000D01*
X84812142Y-127722380D01*
X85050238Y-127722380D01*
X85145476Y-127770000D01*
X85193095Y-127817619D01*
X85240714Y-127912857D01*
X85240714Y-128008095D01*
X85193095Y-128150952D01*
X84621666Y-128722380D01*
X85240714Y-128722380D01*
%TO.C,D1*%
X83716904Y-131897380D02*
X83716904Y-130897380D01*
X83955000Y-130897380D01*
X84097857Y-130945000D01*
X84193095Y-131040238D01*
X84240714Y-131135476D01*
X84288333Y-131325952D01*
X84288333Y-131468809D01*
X84240714Y-131659285D01*
X84193095Y-131754523D01*
X84097857Y-131849761D01*
X83955000Y-131897380D01*
X83716904Y-131897380D01*
X85240714Y-131897380D02*
X84669285Y-131897380D01*
X84955000Y-131897380D02*
X84955000Y-130897380D01*
X84859761Y-131040238D01*
X84764523Y-131135476D01*
X84669285Y-131183095D01*
%TO.C,C8*%
X73357142Y-160821666D02*
X73404761Y-160869285D01*
X73452380Y-161012142D01*
X73452380Y-161107380D01*
X73404761Y-161250238D01*
X73309523Y-161345476D01*
X73214285Y-161393095D01*
X73023809Y-161440714D01*
X72880952Y-161440714D01*
X72690476Y-161393095D01*
X72595238Y-161345476D01*
X72500000Y-161250238D01*
X72452380Y-161107380D01*
X72452380Y-161012142D01*
X72500000Y-160869285D01*
X72547619Y-160821666D01*
X72880952Y-160250238D02*
X72833333Y-160345476D01*
X72785714Y-160393095D01*
X72690476Y-160440714D01*
X72642857Y-160440714D01*
X72547619Y-160393095D01*
X72500000Y-160345476D01*
X72452380Y-160250238D01*
X72452380Y-160059761D01*
X72500000Y-159964523D01*
X72547619Y-159916904D01*
X72642857Y-159869285D01*
X72690476Y-159869285D01*
X72785714Y-159916904D01*
X72833333Y-159964523D01*
X72880952Y-160059761D01*
X72880952Y-160250238D01*
X72928571Y-160345476D01*
X72976190Y-160393095D01*
X73071428Y-160440714D01*
X73261904Y-160440714D01*
X73357142Y-160393095D01*
X73404761Y-160345476D01*
X73452380Y-160250238D01*
X73452380Y-160059761D01*
X73404761Y-159964523D01*
X73357142Y-159916904D01*
X73261904Y-159869285D01*
X73071428Y-159869285D01*
X72976190Y-159916904D01*
X72928571Y-159964523D01*
X72880952Y-160059761D01*
%TO.C,C7*%
X102703333Y-159767142D02*
X102655714Y-159814761D01*
X102512857Y-159862380D01*
X102417619Y-159862380D01*
X102274761Y-159814761D01*
X102179523Y-159719523D01*
X102131904Y-159624285D01*
X102084285Y-159433809D01*
X102084285Y-159290952D01*
X102131904Y-159100476D01*
X102179523Y-159005238D01*
X102274761Y-158910000D01*
X102417619Y-158862380D01*
X102512857Y-158862380D01*
X102655714Y-158910000D01*
X102703333Y-158957619D01*
X103036666Y-158862380D02*
X103703333Y-158862380D01*
X103274761Y-159862380D01*
%TO.C,C5*%
X92543333Y-159767142D02*
X92495714Y-159814761D01*
X92352857Y-159862380D01*
X92257619Y-159862380D01*
X92114761Y-159814761D01*
X92019523Y-159719523D01*
X91971904Y-159624285D01*
X91924285Y-159433809D01*
X91924285Y-159290952D01*
X91971904Y-159100476D01*
X92019523Y-159005238D01*
X92114761Y-158910000D01*
X92257619Y-158862380D01*
X92352857Y-158862380D01*
X92495714Y-158910000D01*
X92543333Y-158957619D01*
X93448095Y-158862380D02*
X92971904Y-158862380D01*
X92924285Y-159338571D01*
X92971904Y-159290952D01*
X93067142Y-159243333D01*
X93305238Y-159243333D01*
X93400476Y-159290952D01*
X93448095Y-159338571D01*
X93495714Y-159433809D01*
X93495714Y-159671904D01*
X93448095Y-159767142D01*
X93400476Y-159814761D01*
X93305238Y-159862380D01*
X93067142Y-159862380D01*
X92971904Y-159814761D01*
X92924285Y-159767142D01*
%TO.C,C3*%
X65787142Y-157646666D02*
X65834761Y-157694285D01*
X65882380Y-157837142D01*
X65882380Y-157932380D01*
X65834761Y-158075238D01*
X65739523Y-158170476D01*
X65644285Y-158218095D01*
X65453809Y-158265714D01*
X65310952Y-158265714D01*
X65120476Y-158218095D01*
X65025238Y-158170476D01*
X64930000Y-158075238D01*
X64882380Y-157932380D01*
X64882380Y-157837142D01*
X64930000Y-157694285D01*
X64977619Y-157646666D01*
X64882380Y-157313333D02*
X64882380Y-156694285D01*
X65263333Y-157027619D01*
X65263333Y-156884761D01*
X65310952Y-156789523D01*
X65358571Y-156741904D01*
X65453809Y-156694285D01*
X65691904Y-156694285D01*
X65787142Y-156741904D01*
X65834761Y-156789523D01*
X65882380Y-156884761D01*
X65882380Y-157170476D01*
X65834761Y-157265714D01*
X65787142Y-157313333D01*
%TO.C,Y1*%
X100631190Y-141451190D02*
X101107380Y-141451190D01*
X100107380Y-141784523D02*
X100631190Y-141451190D01*
X100107380Y-141117857D01*
X101107380Y-140260714D02*
X101107380Y-140832142D01*
X101107380Y-140546428D02*
X100107380Y-140546428D01*
X100250238Y-140641666D01*
X100345476Y-140736904D01*
X100393095Y-140832142D01*
%TO.C,R14*%
X124277380Y-120022857D02*
X123801190Y-120356190D01*
X124277380Y-120594285D02*
X123277380Y-120594285D01*
X123277380Y-120213333D01*
X123325000Y-120118095D01*
X123372619Y-120070476D01*
X123467857Y-120022857D01*
X123610714Y-120022857D01*
X123705952Y-120070476D01*
X123753571Y-120118095D01*
X123801190Y-120213333D01*
X123801190Y-120594285D01*
X124277380Y-119070476D02*
X124277380Y-119641904D01*
X124277380Y-119356190D02*
X123277380Y-119356190D01*
X123420238Y-119451428D01*
X123515476Y-119546666D01*
X123563095Y-119641904D01*
X123610714Y-118213333D02*
X124277380Y-118213333D01*
X123229761Y-118451428D02*
X123944047Y-118689523D01*
X123944047Y-118070476D01*
%TO.C,R13*%
X124277380Y-130182857D02*
X123801190Y-130516190D01*
X124277380Y-130754285D02*
X123277380Y-130754285D01*
X123277380Y-130373333D01*
X123325000Y-130278095D01*
X123372619Y-130230476D01*
X123467857Y-130182857D01*
X123610714Y-130182857D01*
X123705952Y-130230476D01*
X123753571Y-130278095D01*
X123801190Y-130373333D01*
X123801190Y-130754285D01*
X124277380Y-129230476D02*
X124277380Y-129801904D01*
X124277380Y-129516190D02*
X123277380Y-129516190D01*
X123420238Y-129611428D01*
X123515476Y-129706666D01*
X123563095Y-129801904D01*
X123277380Y-128897142D02*
X123277380Y-128278095D01*
X123658333Y-128611428D01*
X123658333Y-128468571D01*
X123705952Y-128373333D01*
X123753571Y-128325714D01*
X123848809Y-128278095D01*
X124086904Y-128278095D01*
X124182142Y-128325714D01*
X124229761Y-128373333D01*
X124277380Y-128468571D01*
X124277380Y-128754285D01*
X124229761Y-128849523D01*
X124182142Y-128897142D01*
%TO.C,R12*%
X124277380Y-140342857D02*
X123801190Y-140676190D01*
X124277380Y-140914285D02*
X123277380Y-140914285D01*
X123277380Y-140533333D01*
X123325000Y-140438095D01*
X123372619Y-140390476D01*
X123467857Y-140342857D01*
X123610714Y-140342857D01*
X123705952Y-140390476D01*
X123753571Y-140438095D01*
X123801190Y-140533333D01*
X123801190Y-140914285D01*
X124277380Y-139390476D02*
X124277380Y-139961904D01*
X124277380Y-139676190D02*
X123277380Y-139676190D01*
X123420238Y-139771428D01*
X123515476Y-139866666D01*
X123563095Y-139961904D01*
X123372619Y-139009523D02*
X123325000Y-138961904D01*
X123277380Y-138866666D01*
X123277380Y-138628571D01*
X123325000Y-138533333D01*
X123372619Y-138485714D01*
X123467857Y-138438095D01*
X123563095Y-138438095D01*
X123705952Y-138485714D01*
X124277380Y-139057142D01*
X124277380Y-138438095D01*
%TO.C,R11*%
X124277380Y-150502857D02*
X123801190Y-150836190D01*
X124277380Y-151074285D02*
X123277380Y-151074285D01*
X123277380Y-150693333D01*
X123325000Y-150598095D01*
X123372619Y-150550476D01*
X123467857Y-150502857D01*
X123610714Y-150502857D01*
X123705952Y-150550476D01*
X123753571Y-150598095D01*
X123801190Y-150693333D01*
X123801190Y-151074285D01*
X124277380Y-149550476D02*
X124277380Y-150121904D01*
X124277380Y-149836190D02*
X123277380Y-149836190D01*
X123420238Y-149931428D01*
X123515476Y-150026666D01*
X123563095Y-150121904D01*
X124277380Y-148598095D02*
X124277380Y-149169523D01*
X124277380Y-148883809D02*
X123277380Y-148883809D01*
X123420238Y-148979047D01*
X123515476Y-149074285D01*
X123563095Y-149169523D01*
%TO.C,R10*%
X92067142Y-148152380D02*
X91733809Y-147676190D01*
X91495714Y-148152380D02*
X91495714Y-147152380D01*
X91876666Y-147152380D01*
X91971904Y-147200000D01*
X92019523Y-147247619D01*
X92067142Y-147342857D01*
X92067142Y-147485714D01*
X92019523Y-147580952D01*
X91971904Y-147628571D01*
X91876666Y-147676190D01*
X91495714Y-147676190D01*
X93019523Y-148152380D02*
X92448095Y-148152380D01*
X92733809Y-148152380D02*
X92733809Y-147152380D01*
X92638571Y-147295238D01*
X92543333Y-147390476D01*
X92448095Y-147438095D01*
X93638571Y-147152380D02*
X93733809Y-147152380D01*
X93829047Y-147200000D01*
X93876666Y-147247619D01*
X93924285Y-147342857D01*
X93971904Y-147533333D01*
X93971904Y-147771428D01*
X93924285Y-147961904D01*
X93876666Y-148057142D01*
X93829047Y-148104761D01*
X93733809Y-148152380D01*
X93638571Y-148152380D01*
X93543333Y-148104761D01*
X93495714Y-148057142D01*
X93448095Y-147961904D01*
X93400476Y-147771428D01*
X93400476Y-147533333D01*
X93448095Y-147342857D01*
X93495714Y-147247619D01*
X93543333Y-147200000D01*
X93638571Y-147152380D01*
%TO.C,R9*%
X87463333Y-135072380D02*
X87130000Y-134596190D01*
X86891904Y-135072380D02*
X86891904Y-134072380D01*
X87272857Y-134072380D01*
X87368095Y-134120000D01*
X87415714Y-134167619D01*
X87463333Y-134262857D01*
X87463333Y-134405714D01*
X87415714Y-134500952D01*
X87368095Y-134548571D01*
X87272857Y-134596190D01*
X86891904Y-134596190D01*
X87939523Y-135072380D02*
X88130000Y-135072380D01*
X88225238Y-135024761D01*
X88272857Y-134977142D01*
X88368095Y-134834285D01*
X88415714Y-134643809D01*
X88415714Y-134262857D01*
X88368095Y-134167619D01*
X88320476Y-134120000D01*
X88225238Y-134072380D01*
X88034761Y-134072380D01*
X87939523Y-134120000D01*
X87891904Y-134167619D01*
X87844285Y-134262857D01*
X87844285Y-134500952D01*
X87891904Y-134596190D01*
X87939523Y-134643809D01*
X88034761Y-134691428D01*
X88225238Y-134691428D01*
X88320476Y-134643809D01*
X88368095Y-134596190D01*
X88415714Y-134500952D01*
%TO.C,R8*%
X97925833Y-137992380D02*
X97592500Y-137516190D01*
X97354404Y-137992380D02*
X97354404Y-136992380D01*
X97735357Y-136992380D01*
X97830595Y-137040000D01*
X97878214Y-137087619D01*
X97925833Y-137182857D01*
X97925833Y-137325714D01*
X97878214Y-137420952D01*
X97830595Y-137468571D01*
X97735357Y-137516190D01*
X97354404Y-137516190D01*
X98497261Y-137420952D02*
X98402023Y-137373333D01*
X98354404Y-137325714D01*
X98306785Y-137230476D01*
X98306785Y-137182857D01*
X98354404Y-137087619D01*
X98402023Y-137040000D01*
X98497261Y-136992380D01*
X98687738Y-136992380D01*
X98782976Y-137040000D01*
X98830595Y-137087619D01*
X98878214Y-137182857D01*
X98878214Y-137230476D01*
X98830595Y-137325714D01*
X98782976Y-137373333D01*
X98687738Y-137420952D01*
X98497261Y-137420952D01*
X98402023Y-137468571D01*
X98354404Y-137516190D01*
X98306785Y-137611428D01*
X98306785Y-137801904D01*
X98354404Y-137897142D01*
X98402023Y-137944761D01*
X98497261Y-137992380D01*
X98687738Y-137992380D01*
X98782976Y-137944761D01*
X98830595Y-137897142D01*
X98878214Y-137801904D01*
X98878214Y-137611428D01*
X98830595Y-137516190D01*
X98782976Y-137468571D01*
X98687738Y-137420952D01*
%TO.C,R7*%
X87463333Y-123642380D02*
X87130000Y-123166190D01*
X86891904Y-123642380D02*
X86891904Y-122642380D01*
X87272857Y-122642380D01*
X87368095Y-122690000D01*
X87415714Y-122737619D01*
X87463333Y-122832857D01*
X87463333Y-122975714D01*
X87415714Y-123070952D01*
X87368095Y-123118571D01*
X87272857Y-123166190D01*
X86891904Y-123166190D01*
X87796666Y-122642380D02*
X88463333Y-122642380D01*
X88034761Y-123642380D01*
%TO.C,R6*%
X97925833Y-124277380D02*
X97592500Y-123801190D01*
X97354404Y-124277380D02*
X97354404Y-123277380D01*
X97735357Y-123277380D01*
X97830595Y-123325000D01*
X97878214Y-123372619D01*
X97925833Y-123467857D01*
X97925833Y-123610714D01*
X97878214Y-123705952D01*
X97830595Y-123753571D01*
X97735357Y-123801190D01*
X97354404Y-123801190D01*
X98782976Y-123277380D02*
X98592500Y-123277380D01*
X98497261Y-123325000D01*
X98449642Y-123372619D01*
X98354404Y-123515476D01*
X98306785Y-123705952D01*
X98306785Y-124086904D01*
X98354404Y-124182142D01*
X98402023Y-124229761D01*
X98497261Y-124277380D01*
X98687738Y-124277380D01*
X98782976Y-124229761D01*
X98830595Y-124182142D01*
X98878214Y-124086904D01*
X98878214Y-123848809D01*
X98830595Y-123753571D01*
X98782976Y-123705952D01*
X98687738Y-123658333D01*
X98497261Y-123658333D01*
X98402023Y-123705952D01*
X98354404Y-123753571D01*
X98306785Y-123848809D01*
%TO.C,R5*%
X68413333Y-141042380D02*
X68080000Y-140566190D01*
X67841904Y-141042380D02*
X67841904Y-140042380D01*
X68222857Y-140042380D01*
X68318095Y-140090000D01*
X68365714Y-140137619D01*
X68413333Y-140232857D01*
X68413333Y-140375714D01*
X68365714Y-140470952D01*
X68318095Y-140518571D01*
X68222857Y-140566190D01*
X67841904Y-140566190D01*
X69318095Y-140042380D02*
X68841904Y-140042380D01*
X68794285Y-140518571D01*
X68841904Y-140470952D01*
X68937142Y-140423333D01*
X69175238Y-140423333D01*
X69270476Y-140470952D01*
X69318095Y-140518571D01*
X69365714Y-140613809D01*
X69365714Y-140851904D01*
X69318095Y-140947142D01*
X69270476Y-140994761D01*
X69175238Y-141042380D01*
X68937142Y-141042380D01*
X68841904Y-140994761D01*
X68794285Y-140947142D01*
%TO.C,R4*%
X68413333Y-135962380D02*
X68080000Y-135486190D01*
X67841904Y-135962380D02*
X67841904Y-134962380D01*
X68222857Y-134962380D01*
X68318095Y-135010000D01*
X68365714Y-135057619D01*
X68413333Y-135152857D01*
X68413333Y-135295714D01*
X68365714Y-135390952D01*
X68318095Y-135438571D01*
X68222857Y-135486190D01*
X67841904Y-135486190D01*
X69270476Y-135295714D02*
X69270476Y-135962380D01*
X69032380Y-134914761D02*
X68794285Y-135629047D01*
X69413333Y-135629047D01*
%TO.C,R3*%
X72462380Y-137326666D02*
X71986190Y-137660000D01*
X72462380Y-137898095D02*
X71462380Y-137898095D01*
X71462380Y-137517142D01*
X71510000Y-137421904D01*
X71557619Y-137374285D01*
X71652857Y-137326666D01*
X71795714Y-137326666D01*
X71890952Y-137374285D01*
X71938571Y-137421904D01*
X71986190Y-137517142D01*
X71986190Y-137898095D01*
X71462380Y-136993333D02*
X71462380Y-136374285D01*
X71843333Y-136707619D01*
X71843333Y-136564761D01*
X71890952Y-136469523D01*
X71938571Y-136421904D01*
X72033809Y-136374285D01*
X72271904Y-136374285D01*
X72367142Y-136421904D01*
X72414761Y-136469523D01*
X72462380Y-136564761D01*
X72462380Y-136850476D01*
X72414761Y-136945714D01*
X72367142Y-136993333D01*
%TO.C,R2*%
X51507380Y-141771666D02*
X51031190Y-142105000D01*
X51507380Y-142343095D02*
X50507380Y-142343095D01*
X50507380Y-141962142D01*
X50555000Y-141866904D01*
X50602619Y-141819285D01*
X50697857Y-141771666D01*
X50840714Y-141771666D01*
X50935952Y-141819285D01*
X50983571Y-141866904D01*
X51031190Y-141962142D01*
X51031190Y-142343095D01*
X50602619Y-141390714D02*
X50555000Y-141343095D01*
X50507380Y-141247857D01*
X50507380Y-141009761D01*
X50555000Y-140914523D01*
X50602619Y-140866904D01*
X50697857Y-140819285D01*
X50793095Y-140819285D01*
X50935952Y-140866904D01*
X51507380Y-141438333D01*
X51507380Y-140819285D01*
%TO.C,R1*%
X103338333Y-120722380D02*
X103005000Y-120246190D01*
X102766904Y-120722380D02*
X102766904Y-119722380D01*
X103147857Y-119722380D01*
X103243095Y-119770000D01*
X103290714Y-119817619D01*
X103338333Y-119912857D01*
X103338333Y-120055714D01*
X103290714Y-120150952D01*
X103243095Y-120198571D01*
X103147857Y-120246190D01*
X102766904Y-120246190D01*
X104290714Y-120722380D02*
X103719285Y-120722380D01*
X104005000Y-120722380D02*
X104005000Y-119722380D01*
X103909761Y-119865238D01*
X103814523Y-119960476D01*
X103719285Y-120008095D01*
%TO.C,C6*%
X78837142Y-154471666D02*
X78884761Y-154519285D01*
X78932380Y-154662142D01*
X78932380Y-154757380D01*
X78884761Y-154900238D01*
X78789523Y-154995476D01*
X78694285Y-155043095D01*
X78503809Y-155090714D01*
X78360952Y-155090714D01*
X78170476Y-155043095D01*
X78075238Y-154995476D01*
X77980000Y-154900238D01*
X77932380Y-154757380D01*
X77932380Y-154662142D01*
X77980000Y-154519285D01*
X78027619Y-154471666D01*
X77932380Y-153614523D02*
X77932380Y-153805000D01*
X77980000Y-153900238D01*
X78027619Y-153947857D01*
X78170476Y-154043095D01*
X78360952Y-154090714D01*
X78741904Y-154090714D01*
X78837142Y-154043095D01*
X78884761Y-153995476D01*
X78932380Y-153900238D01*
X78932380Y-153709761D01*
X78884761Y-153614523D01*
X78837142Y-153566904D01*
X78741904Y-153519285D01*
X78503809Y-153519285D01*
X78408571Y-153566904D01*
X78360952Y-153614523D01*
X78313333Y-153709761D01*
X78313333Y-153900238D01*
X78360952Y-153995476D01*
X78408571Y-154043095D01*
X78503809Y-154090714D01*
%TO.C,C4*%
X71852142Y-158281666D02*
X71899761Y-158329285D01*
X71947380Y-158472142D01*
X71947380Y-158567380D01*
X71899761Y-158710238D01*
X71804523Y-158805476D01*
X71709285Y-158853095D01*
X71518809Y-158900714D01*
X71375952Y-158900714D01*
X71185476Y-158853095D01*
X71090238Y-158805476D01*
X70995000Y-158710238D01*
X70947380Y-158567380D01*
X70947380Y-158472142D01*
X70995000Y-158329285D01*
X71042619Y-158281666D01*
X71280714Y-157424523D02*
X71947380Y-157424523D01*
X70899761Y-157662619D02*
X71614047Y-157900714D01*
X71614047Y-157281666D01*
%TO.C,C2*%
X105113333Y-151227142D02*
X105065714Y-151274761D01*
X104922857Y-151322380D01*
X104827619Y-151322380D01*
X104684761Y-151274761D01*
X104589523Y-151179523D01*
X104541904Y-151084285D01*
X104494285Y-150893809D01*
X104494285Y-150750952D01*
X104541904Y-150560476D01*
X104589523Y-150465238D01*
X104684761Y-150370000D01*
X104827619Y-150322380D01*
X104922857Y-150322380D01*
X105065714Y-150370000D01*
X105113333Y-150417619D01*
X105494285Y-150417619D02*
X105541904Y-150370000D01*
X105637142Y-150322380D01*
X105875238Y-150322380D01*
X105970476Y-150370000D01*
X106018095Y-150417619D01*
X106065714Y-150512857D01*
X106065714Y-150608095D01*
X106018095Y-150750952D01*
X105446666Y-151322380D01*
X106065714Y-151322380D01*
%TO.C,C1*%
X104478333Y-131427142D02*
X104430714Y-131474761D01*
X104287857Y-131522380D01*
X104192619Y-131522380D01*
X104049761Y-131474761D01*
X103954523Y-131379523D01*
X103906904Y-131284285D01*
X103859285Y-131093809D01*
X103859285Y-130950952D01*
X103906904Y-130760476D01*
X103954523Y-130665238D01*
X104049761Y-130570000D01*
X104192619Y-130522380D01*
X104287857Y-130522380D01*
X104430714Y-130570000D01*
X104478333Y-130617619D01*
X105430714Y-131522380D02*
X104859285Y-131522380D01*
X105145000Y-131522380D02*
X105145000Y-130522380D01*
X105049761Y-130665238D01*
X104954523Y-130760476D01*
X104859285Y-130808095D01*
%TO.C,SW8*%
X92011666Y-129944761D02*
X92154523Y-129992380D01*
X92392619Y-129992380D01*
X92487857Y-129944761D01*
X92535476Y-129897142D01*
X92583095Y-129801904D01*
X92583095Y-129706666D01*
X92535476Y-129611428D01*
X92487857Y-129563809D01*
X92392619Y-129516190D01*
X92202142Y-129468571D01*
X92106904Y-129420952D01*
X92059285Y-129373333D01*
X92011666Y-129278095D01*
X92011666Y-129182857D01*
X92059285Y-129087619D01*
X92106904Y-129040000D01*
X92202142Y-128992380D01*
X92440238Y-128992380D01*
X92583095Y-129040000D01*
X92916428Y-128992380D02*
X93154523Y-129992380D01*
X93345000Y-129278095D01*
X93535476Y-129992380D01*
X93773571Y-128992380D01*
X94297380Y-129420952D02*
X94202142Y-129373333D01*
X94154523Y-129325714D01*
X94106904Y-129230476D01*
X94106904Y-129182857D01*
X94154523Y-129087619D01*
X94202142Y-129040000D01*
X94297380Y-128992380D01*
X94487857Y-128992380D01*
X94583095Y-129040000D01*
X94630714Y-129087619D01*
X94678333Y-129182857D01*
X94678333Y-129230476D01*
X94630714Y-129325714D01*
X94583095Y-129373333D01*
X94487857Y-129420952D01*
X94297380Y-129420952D01*
X94202142Y-129468571D01*
X94154523Y-129516190D01*
X94106904Y-129611428D01*
X94106904Y-129801904D01*
X94154523Y-129897142D01*
X94202142Y-129944761D01*
X94297380Y-129992380D01*
X94487857Y-129992380D01*
X94583095Y-129944761D01*
X94630714Y-129897142D01*
X94678333Y-129801904D01*
X94678333Y-129611428D01*
X94630714Y-129516190D01*
X94583095Y-129468571D01*
X94487857Y-129420952D01*
%TO.C,J6*%
X57082380Y-117173333D02*
X57796666Y-117173333D01*
X57939523Y-117220952D01*
X58034761Y-117316190D01*
X58082380Y-117459047D01*
X58082380Y-117554285D01*
X57082380Y-116268571D02*
X57082380Y-116459047D01*
X57130000Y-116554285D01*
X57177619Y-116601904D01*
X57320476Y-116697142D01*
X57510952Y-116744761D01*
X57891904Y-116744761D01*
X57987142Y-116697142D01*
X58034761Y-116649523D01*
X58082380Y-116554285D01*
X58082380Y-116363809D01*
X58034761Y-116268571D01*
X57987142Y-116220952D01*
X57891904Y-116173333D01*
X57653809Y-116173333D01*
X57558571Y-116220952D01*
X57510952Y-116268571D01*
X57463333Y-116363809D01*
X57463333Y-116554285D01*
X57510952Y-116649523D01*
X57558571Y-116697142D01*
X57653809Y-116744761D01*
%TO.C,Q3*%
X88637619Y-149955238D02*
X88590000Y-150050476D01*
X88494761Y-150145714D01*
X88351904Y-150288571D01*
X88304285Y-150383809D01*
X88304285Y-150479047D01*
X88542380Y-150431428D02*
X88494761Y-150526666D01*
X88399523Y-150621904D01*
X88209047Y-150669523D01*
X87875714Y-150669523D01*
X87685238Y-150621904D01*
X87590000Y-150526666D01*
X87542380Y-150431428D01*
X87542380Y-150240952D01*
X87590000Y-150145714D01*
X87685238Y-150050476D01*
X87875714Y-150002857D01*
X88209047Y-150002857D01*
X88399523Y-150050476D01*
X88494761Y-150145714D01*
X88542380Y-150240952D01*
X88542380Y-150431428D01*
X87542380Y-149669523D02*
X87542380Y-149050476D01*
X87923333Y-149383809D01*
X87923333Y-149240952D01*
X87970952Y-149145714D01*
X88018571Y-149098095D01*
X88113809Y-149050476D01*
X88351904Y-149050476D01*
X88447142Y-149098095D01*
X88494761Y-149145714D01*
X88542380Y-149240952D01*
X88542380Y-149526666D01*
X88494761Y-149621904D01*
X88447142Y-149669523D01*
%TO.C,Q2*%
X93257619Y-135985238D02*
X93210000Y-136080476D01*
X93114761Y-136175714D01*
X92971904Y-136318571D01*
X92924285Y-136413809D01*
X92924285Y-136509047D01*
X93162380Y-136461428D02*
X93114761Y-136556666D01*
X93019523Y-136651904D01*
X92829047Y-136699523D01*
X92495714Y-136699523D01*
X92305238Y-136651904D01*
X92210000Y-136556666D01*
X92162380Y-136461428D01*
X92162380Y-136270952D01*
X92210000Y-136175714D01*
X92305238Y-136080476D01*
X92495714Y-136032857D01*
X92829047Y-136032857D01*
X93019523Y-136080476D01*
X93114761Y-136175714D01*
X93162380Y-136270952D01*
X93162380Y-136461428D01*
X92257619Y-135651904D02*
X92210000Y-135604285D01*
X92162380Y-135509047D01*
X92162380Y-135270952D01*
X92210000Y-135175714D01*
X92257619Y-135128095D01*
X92352857Y-135080476D01*
X92448095Y-135080476D01*
X92590952Y-135128095D01*
X93162380Y-135699523D01*
X93162380Y-135080476D01*
%TO.C,Q1*%
X93257619Y-123920238D02*
X93210000Y-124015476D01*
X93114761Y-124110714D01*
X92971904Y-124253571D01*
X92924285Y-124348809D01*
X92924285Y-124444047D01*
X93162380Y-124396428D02*
X93114761Y-124491666D01*
X93019523Y-124586904D01*
X92829047Y-124634523D01*
X92495714Y-124634523D01*
X92305238Y-124586904D01*
X92210000Y-124491666D01*
X92162380Y-124396428D01*
X92162380Y-124205952D01*
X92210000Y-124110714D01*
X92305238Y-124015476D01*
X92495714Y-123967857D01*
X92829047Y-123967857D01*
X93019523Y-124015476D01*
X93114761Y-124110714D01*
X93162380Y-124205952D01*
X93162380Y-124396428D01*
X93162380Y-123015476D02*
X93162380Y-123586904D01*
X93162380Y-123301190D02*
X92162380Y-123301190D01*
X92305238Y-123396428D01*
X92400476Y-123491666D01*
X92448095Y-123586904D01*
%TO.C,J5*%
X95492380Y-150193333D02*
X96206666Y-150193333D01*
X96349523Y-150240952D01*
X96444761Y-150336190D01*
X96492380Y-150479047D01*
X96492380Y-150574285D01*
X95492380Y-149240952D02*
X95492380Y-149717142D01*
X95968571Y-149764761D01*
X95920952Y-149717142D01*
X95873333Y-149621904D01*
X95873333Y-149383809D01*
X95920952Y-149288571D01*
X95968571Y-149240952D01*
X96063809Y-149193333D01*
X96301904Y-149193333D01*
X96397142Y-149240952D01*
X96444761Y-149288571D01*
X96492380Y-149383809D01*
X96492380Y-149621904D01*
X96444761Y-149717142D01*
X96397142Y-149764761D01*
%TO.C,J4*%
X57872380Y-152658333D02*
X58586666Y-152658333D01*
X58729523Y-152705952D01*
X58824761Y-152801190D01*
X58872380Y-152944047D01*
X58872380Y-153039285D01*
X58205714Y-151753571D02*
X58872380Y-151753571D01*
X57824761Y-151991666D02*
X58539047Y-152229761D01*
X58539047Y-151610714D01*
%TO.C,J3*%
X130841666Y-163877380D02*
X130841666Y-164591666D01*
X130794047Y-164734523D01*
X130698809Y-164829761D01*
X130555952Y-164877380D01*
X130460714Y-164877380D01*
X131222619Y-163877380D02*
X131841666Y-163877380D01*
X131508333Y-164258333D01*
X131651190Y-164258333D01*
X131746428Y-164305952D01*
X131794047Y-164353571D01*
X131841666Y-164448809D01*
X131841666Y-164686904D01*
X131794047Y-164782142D01*
X131746428Y-164829761D01*
X131651190Y-164877380D01*
X131365476Y-164877380D01*
X131270238Y-164829761D01*
X131222619Y-164782142D01*
%TO.C,J2*%
X106092380Y-162258333D02*
X106806666Y-162258333D01*
X106949523Y-162305952D01*
X107044761Y-162401190D01*
X107092380Y-162544047D01*
X107092380Y-162639285D01*
X106187619Y-161829761D02*
X106140000Y-161782142D01*
X106092380Y-161686904D01*
X106092380Y-161448809D01*
X106140000Y-161353571D01*
X106187619Y-161305952D01*
X106282857Y-161258333D01*
X106378095Y-161258333D01*
X106520952Y-161305952D01*
X107092380Y-161877380D01*
X107092380Y-161258333D01*
%TO.C,J1*%
X95932380Y-162258333D02*
X96646666Y-162258333D01*
X96789523Y-162305952D01*
X96884761Y-162401190D01*
X96932380Y-162544047D01*
X96932380Y-162639285D01*
X96932380Y-161258333D02*
X96932380Y-161829761D01*
X96932380Y-161544047D02*
X95932380Y-161544047D01*
X96075238Y-161639285D01*
X96170476Y-161734523D01*
X96218095Y-161829761D01*
%TO.C,U3*%
X86832380Y-160781904D02*
X87641904Y-160781904D01*
X87737142Y-160734285D01*
X87784761Y-160686666D01*
X87832380Y-160591428D01*
X87832380Y-160400952D01*
X87784761Y-160305714D01*
X87737142Y-160258095D01*
X87641904Y-160210476D01*
X86832380Y-160210476D01*
X86832380Y-159829523D02*
X86832380Y-159210476D01*
X87213333Y-159543809D01*
X87213333Y-159400952D01*
X87260952Y-159305714D01*
X87308571Y-159258095D01*
X87403809Y-159210476D01*
X87641904Y-159210476D01*
X87737142Y-159258095D01*
X87784761Y-159305714D01*
X87832380Y-159400952D01*
X87832380Y-159686666D01*
X87784761Y-159781904D01*
X87737142Y-159829523D01*
%TO.C,U1*%
X61627380Y-149986904D02*
X62436904Y-149986904D01*
X62532142Y-149939285D01*
X62579761Y-149891666D01*
X62627380Y-149796428D01*
X62627380Y-149605952D01*
X62579761Y-149510714D01*
X62532142Y-149463095D01*
X62436904Y-149415476D01*
X61627380Y-149415476D01*
X62627380Y-148415476D02*
X62627380Y-148986904D01*
X62627380Y-148701190D02*
X61627380Y-148701190D01*
X61770238Y-148796428D01*
X61865476Y-148891666D01*
X61913095Y-148986904D01*
%TO.C,U4*%
X112903095Y-123487380D02*
X112903095Y-124296904D01*
X112950714Y-124392142D01*
X112998333Y-124439761D01*
X113093571Y-124487380D01*
X113284047Y-124487380D01*
X113379285Y-124439761D01*
X113426904Y-124392142D01*
X113474523Y-124296904D01*
X113474523Y-123487380D01*
X114379285Y-123820714D02*
X114379285Y-124487380D01*
X114141190Y-123439761D02*
X113903095Y-124154047D01*
X114522142Y-124154047D01*
%TO.C,U2*%
X61518095Y-139162380D02*
X61518095Y-139971904D01*
X61565714Y-140067142D01*
X61613333Y-140114761D01*
X61708571Y-140162380D01*
X61899047Y-140162380D01*
X61994285Y-140114761D01*
X62041904Y-140067142D01*
X62089523Y-139971904D01*
X62089523Y-139162380D01*
X62518095Y-139257619D02*
X62565714Y-139210000D01*
X62660952Y-139162380D01*
X62899047Y-139162380D01*
X62994285Y-139210000D01*
X63041904Y-139257619D01*
X63089523Y-139352857D01*
X63089523Y-139448095D01*
X63041904Y-139590952D01*
X62470476Y-140162380D01*
X63089523Y-140162380D01*
%TD*%
M02*
