M48
; DRILL file {KiCad (5.1.6)-1} date 08/22/20 17:33:19
; FORMAT={-:-/ absolute / metric / decimal}
; #@! TF.CreationDate,2020-08-22T17:33:19+07:00
; #@! TF.GenerationSoftware,Kicad,Pcbnew,(5.1.6)-1
FMAT,2
METRIC
T1C0.400
T2C0.750
T3C0.800
T4C0.900
T5C1.100
%
G90
G05
T1
X57.785Y-118.745
X58.42Y-149.86
X58.42Y-153.67
X59.055Y-141.605
X62.23Y-149.86
X64.77Y-121.285
X67.31Y-119.38
X67.31Y-139.065
X74.295Y-133.985
X83.185Y-125.73
X86.36Y-119.38
X86.995Y-125.73
X99.06Y-125.73
X99.06Y-132.08
X103.505Y-125.095
X121.285Y-130.81
X121.285Y-140.97
X121.92Y-121.92
X121.92Y-149.86
X135.255Y-161.925
T2
X83.82Y-158.75
X83.82Y-160.02
X83.82Y-161.29
T3
X91.98Y-149.86
X93.98Y-149.86
X59.69Y-116.84
X61.69Y-116.84
X91.98Y-161.925
X93.98Y-161.925
X130.175Y-157.925
X130.175Y-159.925
X130.175Y-161.925
X132.175Y-157.925
X132.175Y-159.925
X132.175Y-161.925
X109.855Y-126.365
X109.855Y-128.905
X109.855Y-131.445
X109.855Y-133.985
X109.855Y-136.525
X109.855Y-139.065
X109.855Y-141.605
X109.855Y-144.145
X109.855Y-146.685
X109.855Y-149.225
X109.855Y-151.765
X109.855Y-154.305
X109.855Y-156.845
X109.855Y-159.385
X117.475Y-126.365
X117.475Y-128.905
X117.475Y-131.445
X117.475Y-133.985
X117.475Y-136.525
X117.475Y-139.065
X117.475Y-141.605
X117.475Y-144.145
X117.475Y-146.685
X117.475Y-149.225
X117.475Y-151.765
X117.475Y-154.305
X117.475Y-156.845
X117.475Y-159.385
X103.505Y-139.075
X103.505Y-142.875
X102.14Y-161.925
X104.14Y-161.925
T4
X90.25Y-128.145
X90.25Y-131.445
X92.75Y-128.145
X92.75Y-131.445
X95.25Y-128.145
X95.25Y-131.445
T5
X83.82Y-147.32
X83.82Y-149.86
X83.82Y-152.4
T0
M30
