%TF.GenerationSoftware,KiCad,Pcbnew,(5.1.6)-1*%
%TF.CreationDate,2020-08-22T17:33:05+07:00*%
%TF.ProjectId,PCB design,50434220-6465-4736-9967-6e2e6b696361,rev?*%
%TF.SameCoordinates,Original*%
%TF.FileFunction,Soldermask,Bot*%
%TF.FilePolarity,Negative*%
%FSLAX46Y46*%
G04 Gerber Fmt 4.6, Leading zero omitted, Abs format (unit mm)*
G04 Created by KiCad (PCBNEW (5.1.6)-1) date 2020-08-22 17:33:05*
%MOMM*%
%LPD*%
G01*
G04 APERTURE LIST*
%ADD10C,1.500000*%
%ADD11C,1.400000*%
%ADD12R,1.400000X1.400000*%
%ADD13O,1.350000X1.350000*%
%ADD14R,1.350000X1.350000*%
%ADD15O,2.000000X1.905000*%
%ADD16R,2.000000X1.905000*%
%ADD17R,1.500000X1.050000*%
%ADD18O,1.500000X1.050000*%
%ADD19O,1.600000X1.600000*%
%ADD20R,1.600000X1.600000*%
G04 APERTURE END LIST*
D10*
%TO.C,Y1*%
X103505000Y-139075000D03*
X103505000Y-142875000D03*
%TD*%
D11*
%TO.C,SW8*%
X90250000Y-128145000D03*
X92750000Y-128145000D03*
X95250000Y-128145000D03*
X90250000Y-131445000D03*
X92750000Y-131445000D03*
D12*
X95250000Y-131445000D03*
%TD*%
D13*
%TO.C,J6*%
X61690000Y-116840000D03*
D14*
X59690000Y-116840000D03*
%TD*%
D15*
%TO.C,Q3*%
X83820000Y-152400000D03*
X83820000Y-149860000D03*
D16*
X83820000Y-147320000D03*
%TD*%
D13*
%TO.C,J5*%
X91980000Y-149860000D03*
D14*
X93980000Y-149860000D03*
%TD*%
D13*
%TO.C,J3*%
X132175000Y-157925000D03*
X130175000Y-157925000D03*
X132175000Y-159925000D03*
X130175000Y-159925000D03*
X132175000Y-161925000D03*
D14*
X130175000Y-161925000D03*
%TD*%
D13*
%TO.C,J2*%
X102140000Y-161925000D03*
D14*
X104140000Y-161925000D03*
%TD*%
D13*
%TO.C,J1*%
X91980000Y-161925000D03*
D14*
X93980000Y-161925000D03*
%TD*%
D17*
%TO.C,U3*%
X83820000Y-158750000D03*
D18*
X83820000Y-161290000D03*
X83820000Y-160020000D03*
%TD*%
D19*
%TO.C,U4*%
X117475000Y-126365000D03*
X109855000Y-159385000D03*
X117475000Y-128905000D03*
X109855000Y-156845000D03*
X117475000Y-131445000D03*
X109855000Y-154305000D03*
X117475000Y-133985000D03*
X109855000Y-151765000D03*
X117475000Y-136525000D03*
X109855000Y-149225000D03*
X117475000Y-139065000D03*
X109855000Y-146685000D03*
X117475000Y-141605000D03*
X109855000Y-144145000D03*
X117475000Y-144145000D03*
X109855000Y-141605000D03*
X117475000Y-146685000D03*
X109855000Y-139065000D03*
X117475000Y-149225000D03*
X109855000Y-136525000D03*
X117475000Y-151765000D03*
X109855000Y-133985000D03*
X117475000Y-154305000D03*
X109855000Y-131445000D03*
X117475000Y-156845000D03*
X109855000Y-128905000D03*
X117475000Y-159385000D03*
D20*
X109855000Y-126365000D03*
%TD*%
M02*
