%TF.GenerationSoftware,KiCad,Pcbnew,(5.1.6)-1*%
%TF.CreationDate,2020-08-22T17:33:05+07:00*%
%TF.ProjectId,PCB design,50434220-6465-4736-9967-6e2e6b696361,rev?*%
%TF.SameCoordinates,Original*%
%TF.FileFunction,Copper,L1,Top*%
%TF.FilePolarity,Positive*%
%FSLAX46Y46*%
G04 Gerber Fmt 4.6, Leading zero omitted, Abs format (unit mm)*
G04 Created by KiCad (PCBNEW (5.1.6)-1) date 2020-08-22 17:33:05*
%MOMM*%
%LPD*%
G01*
G04 APERTURE LIST*
%TA.AperFunction,SMDPad,CuDef*%
%ADD10R,1.550000X1.300000*%
%TD*%
%TA.AperFunction,ComponentPad*%
%ADD11C,1.500000*%
%TD*%
%TA.AperFunction,ComponentPad*%
%ADD12C,1.400000*%
%TD*%
%TA.AperFunction,ComponentPad*%
%ADD13R,1.400000X1.400000*%
%TD*%
%TA.AperFunction,ComponentPad*%
%ADD14O,1.350000X1.350000*%
%TD*%
%TA.AperFunction,ComponentPad*%
%ADD15R,1.350000X1.350000*%
%TD*%
%TA.AperFunction,ComponentPad*%
%ADD16O,2.000000X1.905000*%
%TD*%
%TA.AperFunction,ComponentPad*%
%ADD17R,2.000000X1.905000*%
%TD*%
%TA.AperFunction,SMDPad,CuDef*%
%ADD18R,0.800000X0.900000*%
%TD*%
%TA.AperFunction,SMDPad,CuDef*%
%ADD19R,1.900000X1.300000*%
%TD*%
%TA.AperFunction,SMDPad,CuDef*%
%ADD20R,2.800000X1.000000*%
%TD*%
%TA.AperFunction,SMDPad,CuDef*%
%ADD21R,0.800000X1.000000*%
%TD*%
%TA.AperFunction,SMDPad,CuDef*%
%ADD22R,1.200000X1.000000*%
%TD*%
%TA.AperFunction,SMDPad,CuDef*%
%ADD23R,1.200000X0.700000*%
%TD*%
%TA.AperFunction,ComponentPad*%
%ADD24R,1.500000X1.050000*%
%TD*%
%TA.AperFunction,ComponentPad*%
%ADD25O,1.500000X1.050000*%
%TD*%
%TA.AperFunction,SMDPad,CuDef*%
%ADD26R,1.500000X2.000000*%
%TD*%
%TA.AperFunction,SMDPad,CuDef*%
%ADD27R,3.800000X2.000000*%
%TD*%
%TA.AperFunction,ComponentPad*%
%ADD28O,1.600000X1.600000*%
%TD*%
%TA.AperFunction,ComponentPad*%
%ADD29R,1.600000X1.600000*%
%TD*%
%TA.AperFunction,SMDPad,CuDef*%
%ADD30R,4.300000X4.300000*%
%TD*%
%TA.AperFunction,SMDPad,CuDef*%
%ADD31R,0.912500X0.850000*%
%TD*%
%TA.AperFunction,ViaPad*%
%ADD32C,0.800000*%
%TD*%
%TA.AperFunction,Conductor*%
%ADD33C,0.760000*%
%TD*%
%TA.AperFunction,Conductor*%
%ADD34C,0.500000*%
%TD*%
%TA.AperFunction,Conductor*%
%ADD35C,1.000000*%
%TD*%
G04 APERTURE END LIST*
D10*
%TO.P,SW5,2*%
%TO.N,GND*%
X134150000Y-141950000D03*
%TO.P,SW5,1*%
%TO.N,/BUTTON2*%
X134150000Y-137450000D03*
X126200000Y-137450000D03*
%TO.P,SW5,2*%
%TO.N,GND*%
X126200000Y-141950000D03*
%TD*%
%TO.P,SW7,2*%
%TO.N,GND*%
X134150000Y-121630000D03*
%TO.P,SW7,1*%
%TO.N,/BUTTON4*%
X134150000Y-117130000D03*
X126200000Y-117130000D03*
%TO.P,SW7,2*%
%TO.N,GND*%
X126200000Y-121630000D03*
%TD*%
%TO.P,SW6,2*%
%TO.N,GND*%
X134150000Y-131790000D03*
%TO.P,SW6,1*%
%TO.N,/BUTTON3*%
X134150000Y-127290000D03*
X126200000Y-127290000D03*
%TO.P,SW6,2*%
%TO.N,GND*%
X126200000Y-131790000D03*
%TD*%
%TO.P,SW4,2*%
%TO.N,GND*%
X134150000Y-152110000D03*
%TO.P,SW4,1*%
%TO.N,/BUTTON1*%
X134150000Y-147610000D03*
X126200000Y-147610000D03*
%TO.P,SW4,2*%
%TO.N,GND*%
X126200000Y-152110000D03*
%TD*%
%TO.P,SW3,2*%
%TO.N,Net-(SW3-Pad2)*%
X76365000Y-122265000D03*
%TO.P,SW3,1*%
%TO.N,GND*%
X76365000Y-117765000D03*
X68415000Y-117765000D03*
%TO.P,SW3,2*%
%TO.N,Net-(SW3-Pad2)*%
X68415000Y-122265000D03*
%TD*%
%TO.P,SW2,2*%
%TO.N,GND*%
X76365000Y-131790000D03*
%TO.P,SW2,1*%
%TO.N,Net-(R3-Pad2)*%
X76365000Y-127290000D03*
X68415000Y-127290000D03*
%TO.P,SW2,2*%
%TO.N,GND*%
X68415000Y-131790000D03*
%TD*%
%TO.P,SW1,2*%
%TO.N,/RESET*%
X117005000Y-121630000D03*
%TO.P,SW1,1*%
%TO.N,GND*%
X117005000Y-117130000D03*
X109055000Y-117130000D03*
%TO.P,SW1,2*%
%TO.N,/RESET*%
X109055000Y-121630000D03*
%TD*%
%TO.P,D2,2*%
%TO.N,Net-(D2-Pad2)*%
%TA.AperFunction,SMDPad,CuDef*%
G36*
G01*
X84905000Y-128726250D02*
X84905000Y-127813750D01*
G75*
G02*
X85148750Y-127570000I243750J0D01*
G01*
X85636250Y-127570000D01*
G75*
G02*
X85880000Y-127813750I0J-243750D01*
G01*
X85880000Y-128726250D01*
G75*
G02*
X85636250Y-128970000I-243750J0D01*
G01*
X85148750Y-128970000D01*
G75*
G02*
X84905000Y-128726250I0J243750D01*
G01*
G37*
%TD.AperFunction*%
%TO.P,D2,1*%
%TO.N,GND*%
%TA.AperFunction,SMDPad,CuDef*%
G36*
G01*
X83030000Y-128726250D02*
X83030000Y-127813750D01*
G75*
G02*
X83273750Y-127570000I243750J0D01*
G01*
X83761250Y-127570000D01*
G75*
G02*
X84005000Y-127813750I0J-243750D01*
G01*
X84005000Y-128726250D01*
G75*
G02*
X83761250Y-128970000I-243750J0D01*
G01*
X83273750Y-128970000D01*
G75*
G02*
X83030000Y-128726250I0J243750D01*
G01*
G37*
%TD.AperFunction*%
%TD*%
%TO.P,D1,2*%
%TO.N,Net-(D1-Pad2)*%
%TA.AperFunction,SMDPad,CuDef*%
G36*
G01*
X84905000Y-131901250D02*
X84905000Y-130988750D01*
G75*
G02*
X85148750Y-130745000I243750J0D01*
G01*
X85636250Y-130745000D01*
G75*
G02*
X85880000Y-130988750I0J-243750D01*
G01*
X85880000Y-131901250D01*
G75*
G02*
X85636250Y-132145000I-243750J0D01*
G01*
X85148750Y-132145000D01*
G75*
G02*
X84905000Y-131901250I0J243750D01*
G01*
G37*
%TD.AperFunction*%
%TO.P,D1,1*%
%TO.N,GND*%
%TA.AperFunction,SMDPad,CuDef*%
G36*
G01*
X83030000Y-131901250D02*
X83030000Y-130988750D01*
G75*
G02*
X83273750Y-130745000I243750J0D01*
G01*
X83761250Y-130745000D01*
G75*
G02*
X84005000Y-130988750I0J-243750D01*
G01*
X84005000Y-131901250D01*
G75*
G02*
X83761250Y-132145000I-243750J0D01*
G01*
X83273750Y-132145000D01*
G75*
G02*
X83030000Y-131901250I0J243750D01*
G01*
G37*
%TD.AperFunction*%
%TD*%
%TO.P,C8,2*%
%TO.N,GND*%
%TA.AperFunction,SMDPad,CuDef*%
G36*
G01*
X76750000Y-160155000D02*
X75650000Y-160155000D01*
G75*
G02*
X75400000Y-159905000I0J250000D01*
G01*
X75400000Y-157805000D01*
G75*
G02*
X75650000Y-157555000I250000J0D01*
G01*
X76750000Y-157555000D01*
G75*
G02*
X77000000Y-157805000I0J-250000D01*
G01*
X77000000Y-159905000D01*
G75*
G02*
X76750000Y-160155000I-250000J0D01*
G01*
G37*
%TD.AperFunction*%
%TO.P,C8,1*%
%TO.N,+3V3*%
%TA.AperFunction,SMDPad,CuDef*%
G36*
G01*
X76750000Y-163755000D02*
X75650000Y-163755000D01*
G75*
G02*
X75400000Y-163505000I0J250000D01*
G01*
X75400000Y-161405000D01*
G75*
G02*
X75650000Y-161155000I250000J0D01*
G01*
X76750000Y-161155000D01*
G75*
G02*
X77000000Y-161405000I0J-250000D01*
G01*
X77000000Y-163505000D01*
G75*
G02*
X76750000Y-163755000I-250000J0D01*
G01*
G37*
%TD.AperFunction*%
%TD*%
%TO.P,C7,2*%
%TO.N,GND*%
%TA.AperFunction,SMDPad,CuDef*%
G36*
G01*
X102370000Y-155660000D02*
X102370000Y-156760000D01*
G75*
G02*
X102120000Y-157010000I-250000J0D01*
G01*
X100020000Y-157010000D01*
G75*
G02*
X99770000Y-156760000I0J250000D01*
G01*
X99770000Y-155660000D01*
G75*
G02*
X100020000Y-155410000I250000J0D01*
G01*
X102120000Y-155410000D01*
G75*
G02*
X102370000Y-155660000I0J-250000D01*
G01*
G37*
%TD.AperFunction*%
%TO.P,C7,1*%
%TO.N,+5V*%
%TA.AperFunction,SMDPad,CuDef*%
G36*
G01*
X105970000Y-155660000D02*
X105970000Y-156760000D01*
G75*
G02*
X105720000Y-157010000I-250000J0D01*
G01*
X103620000Y-157010000D01*
G75*
G02*
X103370000Y-156760000I0J250000D01*
G01*
X103370000Y-155660000D01*
G75*
G02*
X103620000Y-155410000I250000J0D01*
G01*
X105720000Y-155410000D01*
G75*
G02*
X105970000Y-155660000I0J-250000D01*
G01*
G37*
%TD.AperFunction*%
%TD*%
%TO.P,C5,2*%
%TO.N,GND*%
%TA.AperFunction,SMDPad,CuDef*%
G36*
G01*
X92210000Y-155660000D02*
X92210000Y-156760000D01*
G75*
G02*
X91960000Y-157010000I-250000J0D01*
G01*
X89860000Y-157010000D01*
G75*
G02*
X89610000Y-156760000I0J250000D01*
G01*
X89610000Y-155660000D01*
G75*
G02*
X89860000Y-155410000I250000J0D01*
G01*
X91960000Y-155410000D01*
G75*
G02*
X92210000Y-155660000I0J-250000D01*
G01*
G37*
%TD.AperFunction*%
%TO.P,C5,1*%
%TO.N,+24V*%
%TA.AperFunction,SMDPad,CuDef*%
G36*
G01*
X95810000Y-155660000D02*
X95810000Y-156760000D01*
G75*
G02*
X95560000Y-157010000I-250000J0D01*
G01*
X93460000Y-157010000D01*
G75*
G02*
X93210000Y-156760000I0J250000D01*
G01*
X93210000Y-155660000D01*
G75*
G02*
X93460000Y-155410000I250000J0D01*
G01*
X95560000Y-155410000D01*
G75*
G02*
X95810000Y-155660000I0J-250000D01*
G01*
G37*
%TD.AperFunction*%
%TD*%
%TO.P,C3,2*%
%TO.N,GND*%
%TA.AperFunction,SMDPad,CuDef*%
G36*
G01*
X61680000Y-157980000D02*
X62780000Y-157980000D01*
G75*
G02*
X63030000Y-158230000I0J-250000D01*
G01*
X63030000Y-160330000D01*
G75*
G02*
X62780000Y-160580000I-250000J0D01*
G01*
X61680000Y-160580000D01*
G75*
G02*
X61430000Y-160330000I0J250000D01*
G01*
X61430000Y-158230000D01*
G75*
G02*
X61680000Y-157980000I250000J0D01*
G01*
G37*
%TD.AperFunction*%
%TO.P,C3,1*%
%TO.N,+5V*%
%TA.AperFunction,SMDPad,CuDef*%
G36*
G01*
X61680000Y-154380000D02*
X62780000Y-154380000D01*
G75*
G02*
X63030000Y-154630000I0J-250000D01*
G01*
X63030000Y-156730000D01*
G75*
G02*
X62780000Y-156980000I-250000J0D01*
G01*
X61680000Y-156980000D01*
G75*
G02*
X61430000Y-156730000I0J250000D01*
G01*
X61430000Y-154630000D01*
G75*
G02*
X61680000Y-154380000I250000J0D01*
G01*
G37*
%TD.AperFunction*%
%TD*%
D11*
%TO.P,Y1,2*%
%TO.N,Net-(C1-Pad1)*%
X103505000Y-139075000D03*
%TO.P,Y1,1*%
%TO.N,Net-(C2-Pad1)*%
X103505000Y-142875000D03*
%TD*%
%TO.P,R14,2*%
%TO.N,/BUTTON4*%
%TA.AperFunction,SMDPad,CuDef*%
G36*
G01*
X124281250Y-118930000D02*
X123368750Y-118930000D01*
G75*
G02*
X123125000Y-118686250I0J243750D01*
G01*
X123125000Y-118198750D01*
G75*
G02*
X123368750Y-117955000I243750J0D01*
G01*
X124281250Y-117955000D01*
G75*
G02*
X124525000Y-118198750I0J-243750D01*
G01*
X124525000Y-118686250D01*
G75*
G02*
X124281250Y-118930000I-243750J0D01*
G01*
G37*
%TD.AperFunction*%
%TO.P,R14,1*%
%TO.N,+5V*%
%TA.AperFunction,SMDPad,CuDef*%
G36*
G01*
X124281250Y-120805000D02*
X123368750Y-120805000D01*
G75*
G02*
X123125000Y-120561250I0J243750D01*
G01*
X123125000Y-120073750D01*
G75*
G02*
X123368750Y-119830000I243750J0D01*
G01*
X124281250Y-119830000D01*
G75*
G02*
X124525000Y-120073750I0J-243750D01*
G01*
X124525000Y-120561250D01*
G75*
G02*
X124281250Y-120805000I-243750J0D01*
G01*
G37*
%TD.AperFunction*%
%TD*%
%TO.P,R13,2*%
%TO.N,/BUTTON3*%
%TA.AperFunction,SMDPad,CuDef*%
G36*
G01*
X124281250Y-129090000D02*
X123368750Y-129090000D01*
G75*
G02*
X123125000Y-128846250I0J243750D01*
G01*
X123125000Y-128358750D01*
G75*
G02*
X123368750Y-128115000I243750J0D01*
G01*
X124281250Y-128115000D01*
G75*
G02*
X124525000Y-128358750I0J-243750D01*
G01*
X124525000Y-128846250D01*
G75*
G02*
X124281250Y-129090000I-243750J0D01*
G01*
G37*
%TD.AperFunction*%
%TO.P,R13,1*%
%TO.N,+5V*%
%TA.AperFunction,SMDPad,CuDef*%
G36*
G01*
X124281250Y-130965000D02*
X123368750Y-130965000D01*
G75*
G02*
X123125000Y-130721250I0J243750D01*
G01*
X123125000Y-130233750D01*
G75*
G02*
X123368750Y-129990000I243750J0D01*
G01*
X124281250Y-129990000D01*
G75*
G02*
X124525000Y-130233750I0J-243750D01*
G01*
X124525000Y-130721250D01*
G75*
G02*
X124281250Y-130965000I-243750J0D01*
G01*
G37*
%TD.AperFunction*%
%TD*%
%TO.P,R12,2*%
%TO.N,/BUTTON2*%
%TA.AperFunction,SMDPad,CuDef*%
G36*
G01*
X124281250Y-139250000D02*
X123368750Y-139250000D01*
G75*
G02*
X123125000Y-139006250I0J243750D01*
G01*
X123125000Y-138518750D01*
G75*
G02*
X123368750Y-138275000I243750J0D01*
G01*
X124281250Y-138275000D01*
G75*
G02*
X124525000Y-138518750I0J-243750D01*
G01*
X124525000Y-139006250D01*
G75*
G02*
X124281250Y-139250000I-243750J0D01*
G01*
G37*
%TD.AperFunction*%
%TO.P,R12,1*%
%TO.N,+5V*%
%TA.AperFunction,SMDPad,CuDef*%
G36*
G01*
X124281250Y-141125000D02*
X123368750Y-141125000D01*
G75*
G02*
X123125000Y-140881250I0J243750D01*
G01*
X123125000Y-140393750D01*
G75*
G02*
X123368750Y-140150000I243750J0D01*
G01*
X124281250Y-140150000D01*
G75*
G02*
X124525000Y-140393750I0J-243750D01*
G01*
X124525000Y-140881250D01*
G75*
G02*
X124281250Y-141125000I-243750J0D01*
G01*
G37*
%TD.AperFunction*%
%TD*%
%TO.P,R11,2*%
%TO.N,/BUTTON1*%
%TA.AperFunction,SMDPad,CuDef*%
G36*
G01*
X124281250Y-149410000D02*
X123368750Y-149410000D01*
G75*
G02*
X123125000Y-149166250I0J243750D01*
G01*
X123125000Y-148678750D01*
G75*
G02*
X123368750Y-148435000I243750J0D01*
G01*
X124281250Y-148435000D01*
G75*
G02*
X124525000Y-148678750I0J-243750D01*
G01*
X124525000Y-149166250D01*
G75*
G02*
X124281250Y-149410000I-243750J0D01*
G01*
G37*
%TD.AperFunction*%
%TO.P,R11,1*%
%TO.N,+5V*%
%TA.AperFunction,SMDPad,CuDef*%
G36*
G01*
X124281250Y-151285000D02*
X123368750Y-151285000D01*
G75*
G02*
X123125000Y-151041250I0J243750D01*
G01*
X123125000Y-150553750D01*
G75*
G02*
X123368750Y-150310000I243750J0D01*
G01*
X124281250Y-150310000D01*
G75*
G02*
X124525000Y-150553750I0J-243750D01*
G01*
X124525000Y-151041250D01*
G75*
G02*
X124281250Y-151285000I-243750J0D01*
G01*
G37*
%TD.AperFunction*%
%TD*%
%TO.P,R10,2*%
%TO.N,Net-(Q3-Pad1)*%
%TA.AperFunction,SMDPad,CuDef*%
G36*
G01*
X92260000Y-145593750D02*
X92260000Y-146506250D01*
G75*
G02*
X92016250Y-146750000I-243750J0D01*
G01*
X91528750Y-146750000D01*
G75*
G02*
X91285000Y-146506250I0J243750D01*
G01*
X91285000Y-145593750D01*
G75*
G02*
X91528750Y-145350000I243750J0D01*
G01*
X92016250Y-145350000D01*
G75*
G02*
X92260000Y-145593750I0J-243750D01*
G01*
G37*
%TD.AperFunction*%
%TO.P,R10,1*%
%TO.N,/PWM*%
%TA.AperFunction,SMDPad,CuDef*%
G36*
G01*
X94135000Y-145593750D02*
X94135000Y-146506250D01*
G75*
G02*
X93891250Y-146750000I-243750J0D01*
G01*
X93403750Y-146750000D01*
G75*
G02*
X93160000Y-146506250I0J243750D01*
G01*
X93160000Y-145593750D01*
G75*
G02*
X93403750Y-145350000I243750J0D01*
G01*
X93891250Y-145350000D01*
G75*
G02*
X94135000Y-145593750I0J-243750D01*
G01*
G37*
%TD.AperFunction*%
%TD*%
%TO.P,R9,2*%
%TO.N,Net-(Q2-Pad3)*%
%TA.AperFunction,SMDPad,CuDef*%
G36*
G01*
X88080000Y-135076250D02*
X88080000Y-134163750D01*
G75*
G02*
X88323750Y-133920000I243750J0D01*
G01*
X88811250Y-133920000D01*
G75*
G02*
X89055000Y-134163750I0J-243750D01*
G01*
X89055000Y-135076250D01*
G75*
G02*
X88811250Y-135320000I-243750J0D01*
G01*
X88323750Y-135320000D01*
G75*
G02*
X88080000Y-135076250I0J243750D01*
G01*
G37*
%TD.AperFunction*%
%TO.P,R9,1*%
%TO.N,+5V*%
%TA.AperFunction,SMDPad,CuDef*%
G36*
G01*
X86205000Y-135076250D02*
X86205000Y-134163750D01*
G75*
G02*
X86448750Y-133920000I243750J0D01*
G01*
X86936250Y-133920000D01*
G75*
G02*
X87180000Y-134163750I0J-243750D01*
G01*
X87180000Y-135076250D01*
G75*
G02*
X86936250Y-135320000I-243750J0D01*
G01*
X86448750Y-135320000D01*
G75*
G02*
X86205000Y-135076250I0J243750D01*
G01*
G37*
%TD.AperFunction*%
%TD*%
%TO.P,R8,2*%
%TO.N,/RX_ESP*%
%TA.AperFunction,SMDPad,CuDef*%
G36*
G01*
X97642500Y-135433750D02*
X97642500Y-136346250D01*
G75*
G02*
X97398750Y-136590000I-243750J0D01*
G01*
X96911250Y-136590000D01*
G75*
G02*
X96667500Y-136346250I0J243750D01*
G01*
X96667500Y-135433750D01*
G75*
G02*
X96911250Y-135190000I243750J0D01*
G01*
X97398750Y-135190000D01*
G75*
G02*
X97642500Y-135433750I0J-243750D01*
G01*
G37*
%TD.AperFunction*%
%TO.P,R8,1*%
%TO.N,+3V3*%
%TA.AperFunction,SMDPad,CuDef*%
G36*
G01*
X99517500Y-135433750D02*
X99517500Y-136346250D01*
G75*
G02*
X99273750Y-136590000I-243750J0D01*
G01*
X98786250Y-136590000D01*
G75*
G02*
X98542500Y-136346250I0J243750D01*
G01*
X98542500Y-135433750D01*
G75*
G02*
X98786250Y-135190000I243750J0D01*
G01*
X99273750Y-135190000D01*
G75*
G02*
X99517500Y-135433750I0J-243750D01*
G01*
G37*
%TD.AperFunction*%
%TD*%
%TO.P,R7,2*%
%TO.N,Net-(Q1-Pad3)*%
%TA.AperFunction,SMDPad,CuDef*%
G36*
G01*
X88080000Y-123646250D02*
X88080000Y-122733750D01*
G75*
G02*
X88323750Y-122490000I243750J0D01*
G01*
X88811250Y-122490000D01*
G75*
G02*
X89055000Y-122733750I0J-243750D01*
G01*
X89055000Y-123646250D01*
G75*
G02*
X88811250Y-123890000I-243750J0D01*
G01*
X88323750Y-123890000D01*
G75*
G02*
X88080000Y-123646250I0J243750D01*
G01*
G37*
%TD.AperFunction*%
%TO.P,R7,1*%
%TO.N,+5V*%
%TA.AperFunction,SMDPad,CuDef*%
G36*
G01*
X86205000Y-123646250D02*
X86205000Y-122733750D01*
G75*
G02*
X86448750Y-122490000I243750J0D01*
G01*
X86936250Y-122490000D01*
G75*
G02*
X87180000Y-122733750I0J-243750D01*
G01*
X87180000Y-123646250D01*
G75*
G02*
X86936250Y-123890000I-243750J0D01*
G01*
X86448750Y-123890000D01*
G75*
G02*
X86205000Y-123646250I0J243750D01*
G01*
G37*
%TD.AperFunction*%
%TD*%
%TO.P,R6,2*%
%TO.N,/TX_ESP*%
%TA.AperFunction,SMDPad,CuDef*%
G36*
G01*
X97642500Y-123368750D02*
X97642500Y-124281250D01*
G75*
G02*
X97398750Y-124525000I-243750J0D01*
G01*
X96911250Y-124525000D01*
G75*
G02*
X96667500Y-124281250I0J243750D01*
G01*
X96667500Y-123368750D01*
G75*
G02*
X96911250Y-123125000I243750J0D01*
G01*
X97398750Y-123125000D01*
G75*
G02*
X97642500Y-123368750I0J-243750D01*
G01*
G37*
%TD.AperFunction*%
%TO.P,R6,1*%
%TO.N,+3V3*%
%TA.AperFunction,SMDPad,CuDef*%
G36*
G01*
X99517500Y-123368750D02*
X99517500Y-124281250D01*
G75*
G02*
X99273750Y-124525000I-243750J0D01*
G01*
X98786250Y-124525000D01*
G75*
G02*
X98542500Y-124281250I0J243750D01*
G01*
X98542500Y-123368750D01*
G75*
G02*
X98786250Y-123125000I243750J0D01*
G01*
X99273750Y-123125000D01*
G75*
G02*
X99517500Y-123368750I0J-243750D01*
G01*
G37*
%TD.AperFunction*%
%TD*%
%TO.P,R5,2*%
%TO.N,+3V3*%
%TA.AperFunction,SMDPad,CuDef*%
G36*
G01*
X69030000Y-142696250D02*
X69030000Y-141783750D01*
G75*
G02*
X69273750Y-141540000I243750J0D01*
G01*
X69761250Y-141540000D01*
G75*
G02*
X70005000Y-141783750I0J-243750D01*
G01*
X70005000Y-142696250D01*
G75*
G02*
X69761250Y-142940000I-243750J0D01*
G01*
X69273750Y-142940000D01*
G75*
G02*
X69030000Y-142696250I0J243750D01*
G01*
G37*
%TD.AperFunction*%
%TO.P,R5,1*%
%TO.N,Net-(R5-Pad1)*%
%TA.AperFunction,SMDPad,CuDef*%
G36*
G01*
X67155000Y-142696250D02*
X67155000Y-141783750D01*
G75*
G02*
X67398750Y-141540000I243750J0D01*
G01*
X67886250Y-141540000D01*
G75*
G02*
X68130000Y-141783750I0J-243750D01*
G01*
X68130000Y-142696250D01*
G75*
G02*
X67886250Y-142940000I-243750J0D01*
G01*
X67398750Y-142940000D01*
G75*
G02*
X67155000Y-142696250I0J243750D01*
G01*
G37*
%TD.AperFunction*%
%TD*%
%TO.P,R4,2*%
%TO.N,GND*%
%TA.AperFunction,SMDPad,CuDef*%
G36*
G01*
X69030000Y-137616250D02*
X69030000Y-136703750D01*
G75*
G02*
X69273750Y-136460000I243750J0D01*
G01*
X69761250Y-136460000D01*
G75*
G02*
X70005000Y-136703750I0J-243750D01*
G01*
X70005000Y-137616250D01*
G75*
G02*
X69761250Y-137860000I-243750J0D01*
G01*
X69273750Y-137860000D01*
G75*
G02*
X69030000Y-137616250I0J243750D01*
G01*
G37*
%TD.AperFunction*%
%TO.P,R4,1*%
%TO.N,Net-(R4-Pad1)*%
%TA.AperFunction,SMDPad,CuDef*%
G36*
G01*
X67155000Y-137616250D02*
X67155000Y-136703750D01*
G75*
G02*
X67398750Y-136460000I243750J0D01*
G01*
X67886250Y-136460000D01*
G75*
G02*
X68130000Y-136703750I0J-243750D01*
G01*
X68130000Y-137616250D01*
G75*
G02*
X67886250Y-137860000I-243750J0D01*
G01*
X67398750Y-137860000D01*
G75*
G02*
X67155000Y-137616250I0J243750D01*
G01*
G37*
%TD.AperFunction*%
%TD*%
%TO.P,R3,2*%
%TO.N,Net-(R3-Pad2)*%
%TA.AperFunction,SMDPad,CuDef*%
G36*
G01*
X74116250Y-136710000D02*
X73203750Y-136710000D01*
G75*
G02*
X72960000Y-136466250I0J243750D01*
G01*
X72960000Y-135978750D01*
G75*
G02*
X73203750Y-135735000I243750J0D01*
G01*
X74116250Y-135735000D01*
G75*
G02*
X74360000Y-135978750I0J-243750D01*
G01*
X74360000Y-136466250D01*
G75*
G02*
X74116250Y-136710000I-243750J0D01*
G01*
G37*
%TD.AperFunction*%
%TO.P,R3,1*%
%TO.N,Net-(R3-Pad1)*%
%TA.AperFunction,SMDPad,CuDef*%
G36*
G01*
X74116250Y-138585000D02*
X73203750Y-138585000D01*
G75*
G02*
X72960000Y-138341250I0J243750D01*
G01*
X72960000Y-137853750D01*
G75*
G02*
X73203750Y-137610000I243750J0D01*
G01*
X74116250Y-137610000D01*
G75*
G02*
X74360000Y-137853750I0J-243750D01*
G01*
X74360000Y-138341250D01*
G75*
G02*
X74116250Y-138585000I-243750J0D01*
G01*
G37*
%TD.AperFunction*%
%TD*%
%TO.P,R2,2*%
%TO.N,Net-(R2-Pad2)*%
%TA.AperFunction,SMDPad,CuDef*%
G36*
G01*
X53161250Y-141155000D02*
X52248750Y-141155000D01*
G75*
G02*
X52005000Y-140911250I0J243750D01*
G01*
X52005000Y-140423750D01*
G75*
G02*
X52248750Y-140180000I243750J0D01*
G01*
X53161250Y-140180000D01*
G75*
G02*
X53405000Y-140423750I0J-243750D01*
G01*
X53405000Y-140911250D01*
G75*
G02*
X53161250Y-141155000I-243750J0D01*
G01*
G37*
%TD.AperFunction*%
%TO.P,R2,1*%
%TO.N,+3V3*%
%TA.AperFunction,SMDPad,CuDef*%
G36*
G01*
X53161250Y-143030000D02*
X52248750Y-143030000D01*
G75*
G02*
X52005000Y-142786250I0J243750D01*
G01*
X52005000Y-142298750D01*
G75*
G02*
X52248750Y-142055000I243750J0D01*
G01*
X53161250Y-142055000D01*
G75*
G02*
X53405000Y-142298750I0J-243750D01*
G01*
X53405000Y-142786250D01*
G75*
G02*
X53161250Y-143030000I-243750J0D01*
G01*
G37*
%TD.AperFunction*%
%TD*%
%TO.P,R1,2*%
%TO.N,/RESET*%
%TA.AperFunction,SMDPad,CuDef*%
G36*
G01*
X103955000Y-122376250D02*
X103955000Y-121463750D01*
G75*
G02*
X104198750Y-121220000I243750J0D01*
G01*
X104686250Y-121220000D01*
G75*
G02*
X104930000Y-121463750I0J-243750D01*
G01*
X104930000Y-122376250D01*
G75*
G02*
X104686250Y-122620000I-243750J0D01*
G01*
X104198750Y-122620000D01*
G75*
G02*
X103955000Y-122376250I0J243750D01*
G01*
G37*
%TD.AperFunction*%
%TO.P,R1,1*%
%TO.N,+5V*%
%TA.AperFunction,SMDPad,CuDef*%
G36*
G01*
X102080000Y-122376250D02*
X102080000Y-121463750D01*
G75*
G02*
X102323750Y-121220000I243750J0D01*
G01*
X102811250Y-121220000D01*
G75*
G02*
X103055000Y-121463750I0J-243750D01*
G01*
X103055000Y-122376250D01*
G75*
G02*
X102811250Y-122620000I-243750J0D01*
G01*
X102323750Y-122620000D01*
G75*
G02*
X102080000Y-122376250I0J243750D01*
G01*
G37*
%TD.AperFunction*%
%TD*%
%TO.P,C6,2*%
%TO.N,GND*%
%TA.AperFunction,SMDPad,CuDef*%
G36*
G01*
X75125000Y-155080000D02*
X77275000Y-155080000D01*
G75*
G02*
X77525000Y-155330000I0J-250000D01*
G01*
X77525000Y-156080000D01*
G75*
G02*
X77275000Y-156330000I-250000J0D01*
G01*
X75125000Y-156330000D01*
G75*
G02*
X74875000Y-156080000I0J250000D01*
G01*
X74875000Y-155330000D01*
G75*
G02*
X75125000Y-155080000I250000J0D01*
G01*
G37*
%TD.AperFunction*%
%TO.P,C6,1*%
%TO.N,+3V3*%
%TA.AperFunction,SMDPad,CuDef*%
G36*
G01*
X75125000Y-152280000D02*
X77275000Y-152280000D01*
G75*
G02*
X77525000Y-152530000I0J-250000D01*
G01*
X77525000Y-153280000D01*
G75*
G02*
X77275000Y-153530000I-250000J0D01*
G01*
X75125000Y-153530000D01*
G75*
G02*
X74875000Y-153280000I0J250000D01*
G01*
X74875000Y-152530000D01*
G75*
G02*
X75125000Y-152280000I250000J0D01*
G01*
G37*
%TD.AperFunction*%
%TD*%
%TO.P,C4,2*%
%TO.N,GND*%
%TA.AperFunction,SMDPad,CuDef*%
G36*
G01*
X68140000Y-158890000D02*
X70290000Y-158890000D01*
G75*
G02*
X70540000Y-159140000I0J-250000D01*
G01*
X70540000Y-159890000D01*
G75*
G02*
X70290000Y-160140000I-250000J0D01*
G01*
X68140000Y-160140000D01*
G75*
G02*
X67890000Y-159890000I0J250000D01*
G01*
X67890000Y-159140000D01*
G75*
G02*
X68140000Y-158890000I250000J0D01*
G01*
G37*
%TD.AperFunction*%
%TO.P,C4,1*%
%TO.N,+5V*%
%TA.AperFunction,SMDPad,CuDef*%
G36*
G01*
X68140000Y-156090000D02*
X70290000Y-156090000D01*
G75*
G02*
X70540000Y-156340000I0J-250000D01*
G01*
X70540000Y-157090000D01*
G75*
G02*
X70290000Y-157340000I-250000J0D01*
G01*
X68140000Y-157340000D01*
G75*
G02*
X67890000Y-157090000I0J250000D01*
G01*
X67890000Y-156340000D01*
G75*
G02*
X68140000Y-156090000I250000J0D01*
G01*
G37*
%TD.AperFunction*%
%TD*%
%TO.P,C2,2*%
%TO.N,GND*%
%TA.AperFunction,SMDPad,CuDef*%
G36*
G01*
X104505000Y-147515000D02*
X104505000Y-149665000D01*
G75*
G02*
X104255000Y-149915000I-250000J0D01*
G01*
X103505000Y-149915000D01*
G75*
G02*
X103255000Y-149665000I0J250000D01*
G01*
X103255000Y-147515000D01*
G75*
G02*
X103505000Y-147265000I250000J0D01*
G01*
X104255000Y-147265000D01*
G75*
G02*
X104505000Y-147515000I0J-250000D01*
G01*
G37*
%TD.AperFunction*%
%TO.P,C2,1*%
%TO.N,Net-(C2-Pad1)*%
%TA.AperFunction,SMDPad,CuDef*%
G36*
G01*
X107305000Y-147515000D02*
X107305000Y-149665000D01*
G75*
G02*
X107055000Y-149915000I-250000J0D01*
G01*
X106305000Y-149915000D01*
G75*
G02*
X106055000Y-149665000I0J250000D01*
G01*
X106055000Y-147515000D01*
G75*
G02*
X106305000Y-147265000I250000J0D01*
G01*
X107055000Y-147265000D01*
G75*
G02*
X107305000Y-147515000I0J-250000D01*
G01*
G37*
%TD.AperFunction*%
%TD*%
%TO.P,C1,2*%
%TO.N,GND*%
%TA.AperFunction,SMDPad,CuDef*%
G36*
G01*
X105420000Y-134425000D02*
X105420000Y-132275000D01*
G75*
G02*
X105670000Y-132025000I250000J0D01*
G01*
X106420000Y-132025000D01*
G75*
G02*
X106670000Y-132275000I0J-250000D01*
G01*
X106670000Y-134425000D01*
G75*
G02*
X106420000Y-134675000I-250000J0D01*
G01*
X105670000Y-134675000D01*
G75*
G02*
X105420000Y-134425000I0J250000D01*
G01*
G37*
%TD.AperFunction*%
%TO.P,C1,1*%
%TO.N,Net-(C1-Pad1)*%
%TA.AperFunction,SMDPad,CuDef*%
G36*
G01*
X102620000Y-134425000D02*
X102620000Y-132275000D01*
G75*
G02*
X102870000Y-132025000I250000J0D01*
G01*
X103620000Y-132025000D01*
G75*
G02*
X103870000Y-132275000I0J-250000D01*
G01*
X103870000Y-134425000D01*
G75*
G02*
X103620000Y-134675000I-250000J0D01*
G01*
X102870000Y-134675000D01*
G75*
G02*
X102620000Y-134425000I0J250000D01*
G01*
G37*
%TD.AperFunction*%
%TD*%
D12*
%TO.P,SW8,6*%
%TO.N,Net-(D2-Pad2)*%
X90250000Y-128145000D03*
%TO.P,SW8,5*%
%TO.N,Net-(Q1-Pad3)*%
X92750000Y-128145000D03*
%TO.P,SW8,4*%
%TO.N,/RX_ATMEGA*%
X95250000Y-128145000D03*
%TO.P,SW8,3*%
%TO.N,Net-(D1-Pad2)*%
X90250000Y-131445000D03*
%TO.P,SW8,2*%
%TO.N,Net-(Q2-Pad3)*%
X92750000Y-131445000D03*
D13*
%TO.P,SW8,1*%
%TO.N,/TX_ATMEGA*%
X95250000Y-131445000D03*
%TD*%
D14*
%TO.P,J6,2*%
%TO.N,/RX_ESP*%
X61690000Y-116840000D03*
D15*
%TO.P,J6,1*%
%TO.N,/TX_ESP*%
X59690000Y-116840000D03*
%TD*%
D16*
%TO.P,Q3,3*%
%TO.N,GND*%
X83820000Y-152400000D03*
%TO.P,Q3,2*%
%TO.N,Net-(J5-Pad2)*%
X83820000Y-149860000D03*
D17*
%TO.P,Q3,1*%
%TO.N,Net-(Q3-Pad1)*%
X83820000Y-147320000D03*
%TD*%
D18*
%TO.P,Q2,3*%
%TO.N,Net-(Q2-Pad3)*%
X92710000Y-134890000D03*
%TO.P,Q2,2*%
%TO.N,/RX_ESP*%
X93660000Y-136890000D03*
%TO.P,Q2,1*%
X91760000Y-136890000D03*
%TD*%
%TO.P,Q1,3*%
%TO.N,Net-(Q1-Pad3)*%
X92710000Y-124825000D03*
%TO.P,Q1,2*%
%TO.N,/TX_ESP*%
X91760000Y-122825000D03*
%TO.P,Q1,1*%
X93660000Y-122825000D03*
%TD*%
D14*
%TO.P,J5,2*%
%TO.N,Net-(J5-Pad2)*%
X91980000Y-149860000D03*
D15*
%TO.P,J5,1*%
%TO.N,+24V*%
X93980000Y-149860000D03*
%TD*%
D19*
%TO.P,J4,11*%
%TO.N,N/C*%
X41520000Y-159075000D03*
D20*
X41970000Y-145575000D03*
D21*
%TO.P,J4,10*%
X46120000Y-145575000D03*
D22*
%TO.P,J4,11*%
X52320000Y-145575000D03*
X56620000Y-156725000D03*
D23*
%TO.P,J4,7*%
%TO.N,/MISO_ESP*%
X56620000Y-148575000D03*
%TO.P,J4,6*%
%TO.N,GND*%
X56620000Y-149675000D03*
%TO.P,J4,5*%
%TO.N,/SCLK_ESP*%
X56620000Y-150775000D03*
%TO.P,J4,4*%
%TO.N,+3V3*%
X56620000Y-151875000D03*
%TO.P,J4,3*%
%TO.N,/MOSI_ESP*%
X56620000Y-152975000D03*
%TO.P,J4,2*%
%TO.N,/SD_CS*%
X56620000Y-154075000D03*
%TO.P,J4,1*%
%TO.N,Net-(J4-Pad1)*%
X56620000Y-155175000D03*
%TO.P,J4,8*%
%TO.N,Net-(J4-Pad8)*%
X56620000Y-147475000D03*
%TO.P,J4,9*%
%TO.N,Net-(J4-Pad9)*%
X56620000Y-146525000D03*
%TD*%
D14*
%TO.P,J3,6*%
%TO.N,GND*%
X132175000Y-157925000D03*
%TO.P,J3,5*%
%TO.N,/RESET*%
X130175000Y-157925000D03*
%TO.P,J3,4*%
%TO.N,/MOSI*%
X132175000Y-159925000D03*
%TO.P,J3,3*%
%TO.N,/SCK*%
X130175000Y-159925000D03*
%TO.P,J3,2*%
%TO.N,+5V*%
X132175000Y-161925000D03*
D15*
%TO.P,J3,1*%
%TO.N,/MISO*%
X130175000Y-161925000D03*
%TD*%
D14*
%TO.P,J2,2*%
%TO.N,GND*%
X102140000Y-161925000D03*
D15*
%TO.P,J2,1*%
%TO.N,+5V*%
X104140000Y-161925000D03*
%TD*%
D14*
%TO.P,J1,2*%
%TO.N,GND*%
X91980000Y-161925000D03*
D15*
%TO.P,J1,1*%
%TO.N,+24V*%
X93980000Y-161925000D03*
%TD*%
D24*
%TO.P,U3,1*%
%TO.N,+5V*%
X83820000Y-158750000D03*
D25*
%TO.P,U3,3*%
%TO.N,+24V*%
X83820000Y-161290000D03*
%TO.P,U3,2*%
%TO.N,GND*%
X83820000Y-160020000D03*
%TD*%
D26*
%TO.P,U1,1*%
%TO.N,GND*%
X64375000Y-152375000D03*
%TO.P,U1,3*%
%TO.N,+5V*%
X68975000Y-152375000D03*
%TO.P,U1,2*%
%TO.N,+3V3*%
X66675000Y-152375000D03*
D27*
X66675000Y-146075000D03*
%TD*%
D28*
%TO.P,U4,28*%
%TO.N,/BUTTON4*%
X117475000Y-126365000D03*
%TO.P,U4,14*%
%TO.N,Net-(U4-Pad14)*%
X109855000Y-159385000D03*
%TO.P,U4,27*%
%TO.N,/BUTTON3*%
X117475000Y-128905000D03*
%TO.P,U4,13*%
%TO.N,Net-(U4-Pad13)*%
X109855000Y-156845000D03*
%TO.P,U4,26*%
%TO.N,/BUTTON2*%
X117475000Y-131445000D03*
%TO.P,U4,12*%
%TO.N,/PWM*%
X109855000Y-154305000D03*
%TO.P,U4,25*%
%TO.N,/BUTTON1*%
X117475000Y-133985000D03*
%TO.P,U4,11*%
%TO.N,Net-(U4-Pad11)*%
X109855000Y-151765000D03*
%TO.P,U4,24*%
%TO.N,Net-(U4-Pad24)*%
X117475000Y-136525000D03*
%TO.P,U4,10*%
%TO.N,Net-(C2-Pad1)*%
X109855000Y-149225000D03*
%TO.P,U4,23*%
%TO.N,Net-(U4-Pad23)*%
X117475000Y-139065000D03*
%TO.P,U4,9*%
%TO.N,Net-(C1-Pad1)*%
X109855000Y-146685000D03*
%TO.P,U4,22*%
%TO.N,GND*%
X117475000Y-141605000D03*
%TO.P,U4,8*%
X109855000Y-144145000D03*
%TO.P,U4,21*%
%TO.N,Net-(U4-Pad21)*%
X117475000Y-144145000D03*
%TO.P,U4,7*%
%TO.N,+5V*%
X109855000Y-141605000D03*
%TO.P,U4,20*%
X117475000Y-146685000D03*
%TO.P,U4,6*%
%TO.N,Net-(U4-Pad6)*%
X109855000Y-139065000D03*
%TO.P,U4,19*%
%TO.N,/SCK*%
X117475000Y-149225000D03*
%TO.P,U4,5*%
%TO.N,Net-(U4-Pad5)*%
X109855000Y-136525000D03*
%TO.P,U4,18*%
%TO.N,/MISO*%
X117475000Y-151765000D03*
%TO.P,U4,4*%
%TO.N,Net-(U4-Pad4)*%
X109855000Y-133985000D03*
%TO.P,U4,17*%
%TO.N,/MOSI*%
X117475000Y-154305000D03*
%TO.P,U4,3*%
%TO.N,/TX_ATMEGA*%
X109855000Y-131445000D03*
%TO.P,U4,16*%
%TO.N,Net-(U4-Pad16)*%
X117475000Y-156845000D03*
%TO.P,U4,2*%
%TO.N,/RX_ATMEGA*%
X109855000Y-128905000D03*
%TO.P,U4,15*%
%TO.N,Net-(U4-Pad15)*%
X117475000Y-159385000D03*
D29*
%TO.P,U4,1*%
%TO.N,/RESET*%
X109855000Y-126365000D03*
%TD*%
D30*
%TO.P,U2,19*%
%TO.N,GND*%
X57730000Y-128420000D03*
D31*
%TO.P,U2,1*%
%TO.N,+3V3*%
X51150000Y-138277500D03*
%TO.P,U2,2*%
%TO.N,Net-(R2-Pad2)*%
X52650000Y-138277500D03*
%TO.P,U2,3*%
%TO.N,/SCLK_ESP*%
X54150000Y-138277500D03*
%TO.P,U2,4*%
%TO.N,/MISO_ESP*%
X55650000Y-138277500D03*
%TO.P,U2,5*%
%TO.N,/MOSI_ESP*%
X57150000Y-138277500D03*
%TO.P,U2,6*%
%TO.N,Net-(R4-Pad1)*%
X58650000Y-138277500D03*
%TO.P,U2,7*%
%TO.N,Net-(R5-Pad1)*%
X60150000Y-138277500D03*
%TO.P,U2,8*%
%TO.N,Net-(R3-Pad1)*%
X61650000Y-138277500D03*
%TO.P,U2,9*%
%TO.N,GND*%
X63150000Y-138277500D03*
%TO.P,U2,10*%
%TO.N,/SD_CS*%
X63150000Y-120802500D03*
%TO.P,U2,11*%
%TO.N,/RX_ESP*%
X61650000Y-120802500D03*
%TO.P,U2,12*%
%TO.N,/TX_ESP*%
X60150000Y-120802500D03*
%TO.P,U2,13*%
%TO.N,GND*%
X58650000Y-120802500D03*
%TO.P,U2,14*%
%TO.N,Net-(U2-Pad14)*%
X57150000Y-120802500D03*
%TO.P,U2,15*%
%TO.N,Net-(SW3-Pad2)*%
X55650000Y-120802500D03*
%TO.P,U2,16*%
%TO.N,Net-(U2-Pad16)*%
X54150000Y-120802500D03*
%TO.P,U2,17*%
%TO.N,Net-(U2-Pad17)*%
X52650000Y-120802500D03*
%TO.P,U2,18*%
%TO.N,GND*%
X51150000Y-120802500D03*
%TD*%
D32*
%TO.N,GND*%
X58420000Y-149860000D03*
X62230000Y-149860000D03*
X83185000Y-125730000D03*
X74295000Y-133985000D03*
X86360000Y-119380000D03*
%TO.N,+5V*%
X135255000Y-161925000D03*
X121920000Y-149860000D03*
X121285000Y-140970000D03*
X121285000Y-130810000D03*
X121920000Y-121920000D03*
X103505000Y-125095000D03*
X86995000Y-125730000D03*
%TO.N,+3V3*%
X99060000Y-125730000D03*
X99060000Y-132080000D03*
%TO.N,Net-(R4-Pad1)*%
X59055000Y-141605000D03*
X67310000Y-139065000D03*
%TO.N,/SD_CS*%
X58420000Y-153670000D03*
X64770000Y-121285000D03*
%TO.N,Net-(SW3-Pad2)*%
X57785000Y-118745000D03*
X67310000Y-119380000D03*
%TD*%
D33*
%TO.N,Net-(C2-Pad1)*%
X103375000Y-143005000D02*
X103505000Y-142875000D01*
X109855000Y-149225000D02*
X109220000Y-149225000D01*
X107315000Y-149225000D02*
X106680000Y-148590000D01*
X109855000Y-149225000D02*
X107315000Y-149225000D01*
X106680000Y-148590000D02*
X106680000Y-146685000D01*
X103505000Y-143510000D02*
X103505000Y-142875000D01*
X106680000Y-146685000D02*
X103505000Y-143510000D01*
%TO.N,Net-(C1-Pad1)*%
X103245000Y-138815000D02*
X103505000Y-139075000D01*
X103245000Y-133350000D02*
X103245000Y-138815000D01*
X106045000Y-141615000D02*
X103505000Y-139075000D01*
X106045000Y-144145000D02*
X106045000Y-141615000D01*
X109855000Y-146685000D02*
X108585000Y-146685000D01*
X108585000Y-146685000D02*
X106045000Y-144145000D01*
%TO.N,GND*%
X126200000Y-121630000D02*
X134150000Y-121630000D01*
X126200000Y-131790000D02*
X134150000Y-131790000D01*
X126200000Y-141950000D02*
X134150000Y-141950000D01*
X68980000Y-159280000D02*
X69215000Y-159515000D01*
X62230000Y-159280000D02*
X68980000Y-159280000D01*
X90910000Y-160855000D02*
X91980000Y-161925000D01*
X83820000Y-160020000D02*
X90805000Y-160020000D01*
X90910000Y-156210000D02*
X90910000Y-158645000D01*
X90910000Y-158645000D02*
X90910000Y-160855000D01*
X101070000Y-160855000D02*
X102140000Y-161925000D01*
X101070000Y-156210000D02*
X101070000Y-160855000D01*
X68415000Y-117765000D02*
X76365000Y-117765000D01*
X68415000Y-131790000D02*
X69505000Y-131790000D01*
X87100000Y-152400000D02*
X90910000Y-156210000D01*
X83820000Y-152400000D02*
X87100000Y-152400000D01*
X83517500Y-131445000D02*
X83517500Y-128270000D01*
D34*
X69517500Y-131802500D02*
X69505000Y-131790000D01*
X68415000Y-117765000D02*
X67655000Y-117765000D01*
D33*
X109055000Y-117130000D02*
X117005000Y-117130000D01*
X126200000Y-152110000D02*
X134150000Y-152110000D01*
X76200000Y-155705000D02*
X76200000Y-158855000D01*
D34*
X75540000Y-159515000D02*
X76200000Y-158855000D01*
X69215000Y-159515000D02*
X75540000Y-159515000D01*
X58650000Y-127500000D02*
X57730000Y-128420000D01*
X58650000Y-120802500D02*
X58650000Y-127500000D01*
X57730000Y-128420000D02*
X56665000Y-128420000D01*
X51150000Y-122905000D02*
X51150000Y-120802500D01*
X56665000Y-128420000D02*
X51150000Y-122905000D01*
X63150000Y-133840000D02*
X57730000Y-128420000D01*
X63150000Y-138277500D02*
X63150000Y-133840000D01*
X66365000Y-133840000D02*
X68415000Y-131790000D01*
X63150000Y-133840000D02*
X66365000Y-133840000D01*
X69517500Y-132412500D02*
X70140000Y-131790000D01*
X69517500Y-137160000D02*
X69517500Y-132412500D01*
D33*
X69505000Y-131790000D02*
X70140000Y-131790000D01*
X70140000Y-131790000D02*
X76365000Y-131790000D01*
X103880000Y-148590000D02*
X103880000Y-147060000D01*
X103880000Y-147060000D02*
X99695000Y-142875000D01*
X99695000Y-142875000D02*
X81280000Y-142875000D01*
X81280000Y-142875000D02*
X80010000Y-144145000D01*
X80010000Y-144145000D02*
X80010000Y-149860000D01*
X82550000Y-152400000D02*
X83820000Y-152400000D01*
X80010000Y-149860000D02*
X82550000Y-152400000D01*
D34*
X56620000Y-149675000D02*
X58235000Y-149675000D01*
X58235000Y-149675000D02*
X58420000Y-149860000D01*
X64375000Y-152375000D02*
X64375000Y-152005000D01*
X64375000Y-152005000D02*
X62230000Y-149860000D01*
X67020000Y-117765000D02*
X68415000Y-117765000D01*
X66040000Y-118745000D02*
X67020000Y-117765000D01*
X57730000Y-128420000D02*
X60810000Y-128420000D01*
X66040000Y-123190000D02*
X66040000Y-118745000D01*
X60810000Y-128420000D02*
X66040000Y-123190000D01*
X62230000Y-159280000D02*
X60220000Y-159280000D01*
X60220000Y-159280000D02*
X60390010Y-159109990D01*
X60390010Y-159109990D02*
X60390010Y-154239990D01*
X62255000Y-152375000D02*
X64375000Y-152375000D01*
X60390010Y-154239990D02*
X62255000Y-152375000D01*
D33*
X106045000Y-133350000D02*
X106045000Y-131445000D01*
X106045000Y-131445000D02*
X104775000Y-130175000D01*
X104775000Y-130175000D02*
X101600000Y-130175000D01*
X101600000Y-130175000D02*
X100965000Y-130810000D01*
X100965000Y-141605000D02*
X99695000Y-142875000D01*
X100965000Y-130810000D02*
X100965000Y-141605000D01*
X117005000Y-117130000D02*
X120360000Y-117130000D01*
X120360000Y-117130000D02*
X122555000Y-114935000D01*
X122555000Y-114935000D02*
X135890000Y-114935000D01*
X135890000Y-114935000D02*
X136525000Y-115570000D01*
X136525000Y-119255000D02*
X134150000Y-121630000D01*
X136525000Y-115570000D02*
X136525000Y-119255000D01*
X134150000Y-121630000D02*
X134330000Y-121630000D01*
X134330000Y-121630000D02*
X136525000Y-123825000D01*
X136525000Y-129415000D02*
X134150000Y-131790000D01*
X136525000Y-123825000D02*
X136525000Y-129415000D01*
X134150000Y-131790000D02*
X134330000Y-131790000D01*
X134330000Y-131790000D02*
X136525000Y-133985000D01*
X136525000Y-139575000D02*
X134150000Y-141950000D01*
X136525000Y-133985000D02*
X136525000Y-139575000D01*
X134150000Y-141950000D02*
X134330000Y-141950000D01*
X134330000Y-141950000D02*
X136525000Y-144145000D01*
X136525000Y-149735000D02*
X134150000Y-152110000D01*
X136525000Y-144145000D02*
X136525000Y-149735000D01*
X83517500Y-128270000D02*
X83517500Y-126062500D01*
X83517500Y-126062500D02*
X83185000Y-125730000D01*
X109855000Y-144145000D02*
X108585000Y-144145000D01*
X108585000Y-144145000D02*
X107315000Y-142875000D01*
X107315000Y-134620000D02*
X106045000Y-133350000D01*
X107315000Y-142875000D02*
X107315000Y-134620000D01*
X76365000Y-131790000D02*
X76365000Y-131915000D01*
X76365000Y-131915000D02*
X74295000Y-133985000D01*
X109055000Y-117130000D02*
X88610000Y-117130000D01*
X88610000Y-117130000D02*
X86360000Y-119380000D01*
%TO.N,+5V*%
X68180000Y-155680000D02*
X69215000Y-156715000D01*
X62230000Y-155680000D02*
X68180000Y-155680000D01*
X68975000Y-156475000D02*
X69215000Y-156715000D01*
X68975000Y-152375000D02*
X68975000Y-156475000D01*
X104670000Y-161395000D02*
X104140000Y-161925000D01*
X104670000Y-156210000D02*
X104670000Y-161395000D01*
X68975000Y-152375000D02*
X71145000Y-152375000D01*
X71145000Y-152375000D02*
X72390000Y-151130000D01*
X72390000Y-151130000D02*
X78740000Y-151130000D01*
X83820000Y-156210000D02*
X83820000Y-158750000D01*
X78740000Y-151130000D02*
X83820000Y-156210000D01*
X132175000Y-161925000D02*
X135255000Y-161925000D01*
X123825000Y-150797500D02*
X122857500Y-150797500D01*
X122857500Y-150797500D02*
X121920000Y-149860000D01*
X123825000Y-140637500D02*
X121617500Y-140637500D01*
X121617500Y-140637500D02*
X121285000Y-140970000D01*
X123825000Y-130477500D02*
X121617500Y-130477500D01*
X121617500Y-130477500D02*
X121285000Y-130810000D01*
X123825000Y-120317500D02*
X123522500Y-120317500D01*
X123522500Y-120317500D02*
X121920000Y-121920000D01*
X86692500Y-134620000D02*
X83185000Y-134620000D01*
X83185000Y-134620000D02*
X81280000Y-132715000D01*
X81280000Y-132715000D02*
X81280000Y-124460000D01*
X82550000Y-123190000D02*
X86692500Y-123190000D01*
X81280000Y-124460000D02*
X82550000Y-123190000D01*
X102567500Y-121920000D02*
X102567500Y-124157500D01*
X102567500Y-124157500D02*
X103505000Y-125095000D01*
X86692500Y-123190000D02*
X86692500Y-125427500D01*
X86692500Y-125427500D02*
X86995000Y-125730000D01*
%TO.N,/RESET*%
X104732500Y-121630000D02*
X104442500Y-121920000D01*
X109055000Y-121630000D02*
X104732500Y-121630000D01*
X109855000Y-121920000D02*
X110145000Y-121630000D01*
X109855000Y-126365000D02*
X109855000Y-121920000D01*
X109055000Y-121630000D02*
X110145000Y-121630000D01*
X110145000Y-121630000D02*
X117005000Y-121630000D01*
D34*
%TO.N,+3V3*%
X52705000Y-142875000D02*
X52705000Y-142542500D01*
D33*
X69517500Y-143232500D02*
X66675000Y-146075000D01*
X69517500Y-142240000D02*
X69517500Y-143232500D01*
D34*
X76200000Y-152905000D02*
X77340000Y-152905000D01*
X77340000Y-152905000D02*
X79375000Y-154940000D01*
X79375000Y-154940000D02*
X79375000Y-160655000D01*
X77575000Y-162455000D02*
X76200000Y-162455000D01*
X79375000Y-160655000D02*
X77575000Y-162455000D01*
X58315000Y-162455000D02*
X50165000Y-154305000D01*
X52402500Y-142542500D02*
X52705000Y-142542500D01*
X51150000Y-143795000D02*
X51117500Y-143827500D01*
X50165000Y-144780000D02*
X51117500Y-143827500D01*
X51150000Y-138277500D02*
X51150000Y-143795000D01*
X51117500Y-143827500D02*
X52402500Y-142542500D01*
X50275000Y-151875000D02*
X50165000Y-151765000D01*
X56620000Y-151875000D02*
X50275000Y-151875000D01*
X50165000Y-154305000D02*
X50165000Y-151765000D01*
X50165000Y-151765000D02*
X50165000Y-144780000D01*
X66675000Y-146075000D02*
X66675000Y-152375000D01*
X66675000Y-146075000D02*
X63475000Y-146075000D01*
X63475000Y-146075000D02*
X60960000Y-148590000D01*
X60960000Y-148590000D02*
X60960000Y-151765000D01*
X76200000Y-162455000D02*
X58950000Y-162455000D01*
X58950000Y-162455000D02*
X58315000Y-162455000D01*
X60960000Y-151765000D02*
X59690000Y-153035000D01*
X59690000Y-153035000D02*
X59690000Y-154305000D01*
X58315000Y-155680000D02*
X58315000Y-162455000D01*
X59690000Y-154305000D02*
X58315000Y-155680000D01*
D33*
X99030000Y-123825000D02*
X99030000Y-125700000D01*
X99030000Y-125700000D02*
X99060000Y-125730000D01*
X99060000Y-135860000D02*
X99030000Y-135890000D01*
X99060000Y-132080000D02*
X99060000Y-135860000D01*
X99030000Y-135890000D02*
X99030000Y-138460000D01*
X99030000Y-138460000D02*
X97155000Y-140335000D01*
X71422500Y-140335000D02*
X69517500Y-142240000D01*
X97155000Y-140335000D02*
X71422500Y-140335000D01*
D34*
%TO.N,Net-(R2-Pad2)*%
X52650000Y-140612500D02*
X52705000Y-140667500D01*
X52650000Y-138277500D02*
X52650000Y-140612500D01*
%TO.N,Net-(R3-Pad1)*%
X73660000Y-138097500D02*
X71452500Y-138097500D01*
X71452500Y-138097500D02*
X69215000Y-140335000D01*
X69215000Y-140335000D02*
X62230000Y-140335000D01*
X62230000Y-140335000D02*
X61595000Y-139700000D01*
X61650000Y-139645000D02*
X61650000Y-138277500D01*
X61595000Y-139700000D02*
X61650000Y-139645000D01*
%TO.N,Net-(R4-Pad1)*%
X58650000Y-138277500D02*
X58650000Y-141200000D01*
X58650000Y-141200000D02*
X59055000Y-141605000D01*
X67310000Y-137492500D02*
X67642500Y-137160000D01*
X67310000Y-139065000D02*
X67310000Y-137492500D01*
%TO.N,Net-(R5-Pad1)*%
X67642500Y-142240000D02*
X61595000Y-142240000D01*
X60150000Y-140795000D02*
X60150000Y-138277500D01*
X61595000Y-142240000D02*
X60150000Y-140795000D01*
%TO.N,/SCLK_ESP*%
X53975000Y-149860000D02*
X54890000Y-150775000D01*
X53975000Y-144780000D02*
X53975000Y-149860000D01*
X54150000Y-138277500D02*
X54150000Y-144605000D01*
X54890000Y-150775000D02*
X56620000Y-150775000D01*
X54150000Y-144605000D02*
X53975000Y-144780000D01*
%TO.N,/MISO_ESP*%
X55650000Y-138277500D02*
X55569999Y-138357501D01*
X55245000Y-148590000D02*
X56605000Y-148590000D01*
X55245000Y-145415000D02*
X55245000Y-148590000D01*
X56605000Y-148590000D02*
X56620000Y-148575000D01*
X55650000Y-138277500D02*
X55650000Y-145010000D01*
X55650000Y-145010000D02*
X55245000Y-145415000D01*
%TO.N,/MOSI_ESP*%
X57150000Y-143510000D02*
X57150000Y-138277500D01*
X59690000Y-146050000D02*
X57150000Y-143510000D01*
X57720000Y-152975000D02*
X58420000Y-152275000D01*
X59690000Y-151130000D02*
X59690000Y-146050000D01*
X56620000Y-152975000D02*
X57720000Y-152975000D01*
X58420000Y-152275000D02*
X58545000Y-152275000D01*
X58545000Y-152275000D02*
X59690000Y-151130000D01*
%TO.N,/SD_CS*%
X56620000Y-154075000D02*
X58015000Y-154075000D01*
X58015000Y-154075000D02*
X58420000Y-153670000D01*
X63150000Y-120802500D02*
X64287500Y-120802500D01*
X64287500Y-120802500D02*
X64770000Y-121285000D01*
D33*
%TO.N,/SCK*%
X117475000Y-149225000D02*
X118745000Y-149225000D01*
X118745000Y-149225000D02*
X125730000Y-156210000D01*
X125730000Y-156210000D02*
X125730000Y-157480000D01*
X128175000Y-159925000D02*
X130175000Y-159925000D01*
X125730000Y-157480000D02*
X128175000Y-159925000D01*
%TO.N,/MISO*%
X130175000Y-161925000D02*
X127635000Y-161925000D01*
X127635000Y-161925000D02*
X123825000Y-158115000D01*
X123825000Y-158115000D02*
X123825000Y-156845000D01*
X123825000Y-156845000D02*
X118745000Y-151765000D01*
X118745000Y-151765000D02*
X117475000Y-151765000D01*
%TO.N,/MOSI*%
X118745000Y-154305000D02*
X117475000Y-154305000D01*
X121920000Y-157480000D02*
X118745000Y-154305000D01*
X121920000Y-158750000D02*
X121920000Y-157480000D01*
X127000000Y-163830000D02*
X121920000Y-158750000D01*
X136430000Y-159925000D02*
X137160000Y-160655000D01*
X132175000Y-159925000D02*
X136430000Y-159925000D01*
X137160000Y-163195000D02*
X136525000Y-163830000D01*
X137160000Y-160655000D02*
X137160000Y-163195000D01*
X136525000Y-163830000D02*
X127000000Y-163830000D01*
%TO.N,Net-(J5-Pad2)*%
X83820000Y-149860000D02*
X91980000Y-149860000D01*
D35*
%TO.N,+24V*%
X83820000Y-161290000D02*
X86360000Y-163830000D01*
X86360000Y-163830000D02*
X93980000Y-163830000D01*
X94510000Y-161395000D02*
X93980000Y-161925000D01*
X93980000Y-163830000D02*
X93980000Y-161925000D01*
X94510000Y-156210000D02*
X94510000Y-161395000D01*
X94510000Y-150390000D02*
X93980000Y-149860000D01*
X94510000Y-156210000D02*
X94510000Y-150390000D01*
D33*
%TO.N,/TX_ATMEGA*%
X96520000Y-130175000D02*
X95250000Y-131445000D01*
X96520000Y-130175000D02*
X99060000Y-130175000D01*
X99060000Y-130175000D02*
X100330000Y-128905000D01*
X100330000Y-128905000D02*
X105410000Y-128905000D01*
X105410000Y-128905000D02*
X107950000Y-131445000D01*
X107950000Y-131445000D02*
X109855000Y-131445000D01*
D34*
%TO.N,/RX_ESP*%
X61650000Y-116880000D02*
X61690000Y-116840000D01*
X61650000Y-120802500D02*
X61650000Y-116880000D01*
D33*
%TO.N,/TX_ESP*%
X91760000Y-122825000D02*
X93660000Y-122825000D01*
X96155000Y-122825000D02*
X97155000Y-123825000D01*
X93660000Y-122825000D02*
X96155000Y-122825000D01*
D34*
X59690000Y-118460000D02*
X60150000Y-118920000D01*
X59690000Y-116840000D02*
X59690000Y-118460000D01*
X60150000Y-120802500D02*
X60150000Y-118920000D01*
D33*
%TO.N,/RX_ESP*%
X91760000Y-136890000D02*
X93660000Y-136890000D01*
X96155000Y-136890000D02*
X97155000Y-135890000D01*
X93660000Y-136890000D02*
X96155000Y-136890000D01*
D34*
X82915000Y-136890000D02*
X79375000Y-133350000D01*
X62325000Y-116205000D02*
X61690000Y-116840000D01*
X91760000Y-136890000D02*
X82915000Y-136890000D01*
X79375000Y-133350000D02*
X79375000Y-117475000D01*
X79375000Y-117475000D02*
X78105000Y-116205000D01*
X78105000Y-116205000D02*
X62325000Y-116205000D01*
D33*
%TO.N,/RX_ATMEGA*%
X97915000Y-128145000D02*
X95250000Y-128145000D01*
X99060000Y-127000000D02*
X97915000Y-128145000D01*
X106045000Y-127000000D02*
X99060000Y-127000000D01*
X109855000Y-128905000D02*
X107950000Y-128905000D01*
X107950000Y-128905000D02*
X106045000Y-127000000D01*
D34*
%TO.N,/TX_ESP*%
X59690000Y-116840000D02*
X59690000Y-116205000D01*
X61025010Y-114869990D02*
X79404990Y-114869990D01*
X59690000Y-116205000D02*
X61025010Y-114869990D01*
X79404990Y-114869990D02*
X79404990Y-114964990D01*
X79404990Y-114964990D02*
X85725000Y-121285000D01*
X90220000Y-121285000D02*
X91760000Y-122825000D01*
X85725000Y-121285000D02*
X90220000Y-121285000D01*
D33*
%TO.N,Net-(Q3-Pad1)*%
X85090000Y-146050000D02*
X83820000Y-147320000D01*
X91772500Y-146050000D02*
X85090000Y-146050000D01*
%TO.N,Net-(R3-Pad2)*%
X68415000Y-127290000D02*
X76365000Y-127290000D01*
D34*
X73660000Y-136222500D02*
X74597500Y-136222500D01*
X74597500Y-136222500D02*
X78105000Y-132715000D01*
X78105000Y-129030000D02*
X76365000Y-127290000D01*
X78105000Y-132715000D02*
X78105000Y-129030000D01*
D33*
%TO.N,/PWM*%
X109855000Y-154305000D02*
X107950000Y-154305000D01*
X107950000Y-154305000D02*
X106680000Y-153035000D01*
X106680000Y-153035000D02*
X103505000Y-153035000D01*
X103505000Y-153035000D02*
X100965000Y-150495000D01*
X100965000Y-150495000D02*
X100965000Y-147955000D01*
X99060000Y-146050000D02*
X93647500Y-146050000D01*
X100965000Y-147955000D02*
X99060000Y-146050000D01*
%TO.N,/BUTTON1*%
X134150000Y-147610000D02*
X126200000Y-147610000D01*
X124887500Y-148922500D02*
X126200000Y-147610000D01*
X123825000Y-148922500D02*
X124887500Y-148922500D01*
X117475000Y-133985000D02*
X118745000Y-133985000D01*
X118745000Y-133985000D02*
X119380000Y-134620000D01*
X119380000Y-144477500D02*
X123825000Y-148922500D01*
X119380000Y-134620000D02*
X119380000Y-144477500D01*
%TO.N,/BUTTON2*%
X134150000Y-137450000D02*
X126200000Y-137450000D01*
X124887500Y-138762500D02*
X126200000Y-137450000D01*
X123825000Y-138762500D02*
X124887500Y-138762500D01*
X120650000Y-135587500D02*
X123825000Y-138762500D01*
X120650000Y-133350000D02*
X120650000Y-135587500D01*
X117475000Y-131445000D02*
X118745000Y-131445000D01*
X118745000Y-131445000D02*
X120650000Y-133350000D01*
%TO.N,/BUTTON3*%
X126200000Y-127290000D02*
X134150000Y-127290000D01*
X124887500Y-128602500D02*
X126200000Y-127290000D01*
X123825000Y-128602500D02*
X124887500Y-128602500D01*
X117777500Y-128602500D02*
X117475000Y-128905000D01*
X123825000Y-128602500D02*
X117777500Y-128602500D01*
%TO.N,/BUTTON4*%
X126200000Y-117130000D02*
X134150000Y-117130000D01*
X124887500Y-118442500D02*
X126200000Y-117130000D01*
X123825000Y-118442500D02*
X124887500Y-118442500D01*
X123825000Y-118442500D02*
X122857500Y-118442500D01*
X122857500Y-118442500D02*
X120015000Y-121285000D01*
X120015000Y-123825000D02*
X117475000Y-126365000D01*
X120015000Y-121285000D02*
X120015000Y-123825000D01*
%TO.N,Net-(SW3-Pad2)*%
X68415000Y-122265000D02*
X76365000Y-122265000D01*
D34*
X68415000Y-122265000D02*
X68415000Y-121755000D01*
X68415000Y-122265000D02*
X68415000Y-121120000D01*
X57785000Y-118745000D02*
X56515000Y-118745000D01*
X55650000Y-119610000D02*
X55650000Y-120802500D01*
X56515000Y-118745000D02*
X55650000Y-119610000D01*
X68415000Y-121120000D02*
X68415000Y-120485000D01*
X68415000Y-120485000D02*
X67310000Y-119380000D01*
D33*
%TO.N,Net-(D1-Pad2)*%
X90250000Y-131445000D02*
X85392500Y-131445000D01*
%TO.N,Net-(D2-Pad2)*%
X90125000Y-128270000D02*
X90250000Y-128145000D01*
X85392500Y-128270000D02*
X90125000Y-128270000D01*
%TO.N,Net-(Q1-Pad3)*%
X92710000Y-128105000D02*
X92750000Y-128145000D01*
X92710000Y-124825000D02*
X92710000Y-128105000D01*
X90202500Y-124825000D02*
X88567500Y-123190000D01*
X92710000Y-124825000D02*
X90202500Y-124825000D01*
%TO.N,Net-(Q2-Pad3)*%
X92710000Y-131485000D02*
X92750000Y-131445000D01*
X92710000Y-134890000D02*
X92710000Y-134620000D01*
X88567500Y-134620000D02*
X92710000Y-134620000D01*
X92710000Y-134620000D02*
X92710000Y-131485000D01*
%TD*%
M02*
